<svg id="Layer_1" data-name="Layer 1" xmlns="http://www.w3.org/2000/svg" viewBox="0 0 629.94 138.83"><defs><style>.cls-1{fill:#065146;}.cls-2{fill:#990331;}.cls-3{fill:#9a0532;}.cls-4{fill:#065145;}.cls-5{fill:#9b0834;}.cls-6{fill:#0c554a;}.cls-7{fill:#075246;}.cls-8{fill:#9b0935;}.cls-9{fill:#9e103b;}.cls-10{fill:#455560;}.cls-11{fill:#4e5c69;}</style></defs><title>logotipo</title><path class="cls-1" d="M409.17,46.19c13.95-7.87,21-7.37,28.13,1.67,4.36-3.28,8.69-6.71,14.45-7.15,9.12-.71,17.45,4,16.56,14.8-.86,10.33-2.45,20.61-3.71,30.91,0,.22,0,.51-.12.65-2.76,3.15-6.33.86-9.49,1.32-2.34.34-1.42-1.81-1.3-2.9.92-8.09,2-16.18,2.94-24.27.5-4.1.7-8.41-3.27-10.86-4.16-2.58-8.15-.61-11.82,1.84A7.29,7.29,0,0,0,438,58.14c-.85,9.11-2.19,18.17-3.22,27.27-.25,2.25-.91,3.2-3.46,3.16-7.9-.13-8,0-7.14-7.68.66-6.21,1.5-12.41,2.27-18.62,0-.33.13-.65.17-1,.78-5.78-.65-10.07-3.86-11.61-3.42-1.64-9.68.28-13.09,3.89a4.73,4.73,0,0,0-1.06,3c-1.21,9.75-2.51,19.48-3.6,29.25-.25,2.17-1.05,2.68-3.11,2.68-8,0-8.13.07-7.21-7.89,1.4-12.09,3.06-24.15,4.42-36.24.25-2.27,1.1-2.81,3.1-2.6a15.54,15.54,0,0,0,3.34,0C408.52,41.48,410.74,41.84,409.17,46.19Z"/><path class="cls-2" d="M61.66,125.16C33,125.23,9,106.14,2.89,79.63c-.22-.94-1.85-2.9.82-2.83,1.36,0,4.09-1.72,3.93,2-.12,2.74,1.94,4.4,3.91,5.9,5.77,4.4,12.74,5.07,19.57,6C40.5,92.07,50,92.8,59,96.11a39.19,39.19,0,0,1,9.5,4.83c6.92,5,9.19,11.7,7.69,20a3,3,0,0,1-2.78,2.76A55.83,55.83,0,0,1,61.66,125.16Z"/><path class="cls-3" d="M33.28,58.76c-10.18,0-19.45,0-28.71-.06-1,0-3.22,1-2.82-1.4C2,55.58.93,52.69,4.52,52.71c11.84,0,23.67,0,35.79,0-.46,2.49-1.5,4.83,0,7.1a15.82,15.82,0,0,0,7.45,5.48c6.31,2.6,13,3.08,19.72,3.19,11.84.2,23.68.07,35.53.15a68.9,68.9,0,0,1,13.24,1.79c1.62.33,2.29,1,2.08,2.68A60.43,60.43,0,0,1,114.52,88c-.37.93-.63,1.54-1.89,1-14.31-6.51-29.73-6.49-45-7.57-10.47-.74-21-1.15-31.38-2.63a29.83,29.83,0,0,1-9.56-2.89c-3.67-1.88-4.14-4-1.61-7.23S30.17,62.51,33.28,58.76Z"/><path class="cls-4" d="M384,61.91c-.2,24.31-22.92,32.74-39.69,26-6.48-2.6-10-7.82-10.56-14.69-1.95-26,20.11-37.08,38.3-30.88C380.19,45.11,384.12,51.78,384,61.91Zm-38.31,5c0,.89-.07,1.79,0,2.68.58,6.17,4.31,11.23,9.11,12.4,5.43,1.32,11.61-1.44,14.67-7,3.35-6,4.11-12.43,1.57-19-2.83-7.28-10.32-9.83-17-5.64C348,54.17,346,60.14,345.68,66.9Z"/><path class="cls-4" d="M231,66.58c-4.58,0-9.17.12-13.74,0-2.23-.08-2.63.73-2.38,2.73a12.55,12.55,0,0,0,10.22,10.95A30.07,30.07,0,0,0,239,79.7c1.68-.45,2-.12,2.3,1.51.73,4.82.77,5-3.86,6.22A44.2,44.2,0,0,1,220.2,89c-10.56-1.3-16.59-7.54-17.65-18.17-1.47-14.85,8.34-28,22.71-29.92,13-1.71,24.62,6.38,22.42,24-.23,1.8-1.37,1.71-2.64,1.71C240.34,66.57,235.65,66.58,231,66.58Zm-4.77-8.1c2.35,0,4.7,0,7,0,3.65,0,4.09-.67,2.74-4.1-1.74-4.45-5.45-6.54-10.42-5.9-4.08.54-9,5.09-9.35,8.62-.16,1.45.7,1.38,1.62,1.38Z"/><path class="cls-4" d="M506.72,66.58c-4.7,0-9.39.09-14.08,0-1.92-.05-2.24.69-2,2.36a12.63,12.63,0,0,0,10.61,11.36,28.77,28.77,0,0,0,13.28-.47c2.33-.64,2.49.16,2.82,2.06.56,3.26-.53,4.84-3.77,5.59-6.14,1.42-12.28,2.35-18.57,1.4-9.88-1.5-16.17-8.51-16.59-18.47C477.73,55,486.8,42.86,500.9,40.92S525.79,48.37,523.46,65c-.23,1.65-1.17,1.6-2.32,1.59ZM502,58.48c2.68,0,5.36-.11,8,0,2.43.14,2.87-.77,2.25-3-1.33-4.76-5-7.46-9.89-7.15-4.63.3-9.74,4.68-10.33,8.72-.23,1.51.7,1.34,1.58,1.35C496.38,58.49,499.16,58.48,502,58.48Z"/><path class="cls-5" d="M62,40.54l4.75-5.48H9.89c1.9-5.52,2.79-6.2,7.81-6.2H72.91c.08.4.21.65.13.75-4.22,5.73-3.54,8.81,2.81,12.09a27.48,27.48,0,0,0,11.62,2.83,137.28,137.28,0,0,0,24.06-1.27c2.42-.32,3.74.27,4.24,2.76s1.31,4.95,1.92,7.44c.24,1,.47,2.06-1.2,2-16.08-.2-32.11,2.38-48.21,1-3.54-.31-7.12-.69-10.34-2.51s-3.76-3.81-1.57-6.8c1.25-1.7,2.74-3.22,4.12-4.82C61.07,41.8,62,41.59,62,40.54Z"/><path class="cls-6" d="M150.7,51.78c1.72-2,2.42-3.9,4.75-3.89,1.41,0,1-1.2,1.14-2,.9-7.08,1.88-14.16,2.61-21.26.23-2.24.94-3,3.25-3q18.26.16,36.51,0c2.1,0,2.69.49,2.41,2.63-.83,6.45-.75,6.46-7.18,6.46-7,0-14.07.06-21.1,0-2.09,0-3,.56-3.15,2.76-.25,3.44-.86,6.86-1.25,10.29-.48,4.15-.46,4.16,3.6,4.16,7.15,0,14.29,0,21.44,0,1,0,2.67-.85,2.73,1.27,0,1.88-.74,2.61-2.82,2.59C179.59,51.73,165.55,51.78,150.7,51.78Z"/><path class="cls-7" d="M273.25,46.56c3.5-2.37,6.88-4.73,11-5.49.43-.09.87-.18,1.31-.25,2.81-.46,6.63-.77,7.82,1.19s-1.63,4.91-2.63,7.45c-.63,1.6-1.75.47-2.53.28-5.69-1.44-10.32.36-14.17,4.54a8.72,8.72,0,0,0-2.31,5.07c-1,8.76-2.23,17.49-3.16,26.26-.25,2.32-1.06,2.94-3.3,2.94-8.2,0-8.11.08-7-8.23q2.25-17.59,4.23-35.24c.27-2.43.9-3.78,3.6-3.3a14,14,0,0,0,2.34,0C273.1,41.8,273.1,41.8,273.25,46.56Z"/><path class="cls-7" d="M313.56,46.66c5.68-4.17,11.29-7.09,18.29-5.63,2,.42,2.95.89,1.74,2.95a6.71,6.71,0,0,0-.67,1.53c-1,3.41-2.25,5-6.66,4-6.6-1.63-13.4,4.09-14.26,10.84-1.08,8.53-2.21,17-3.15,25.59-.22,2-.8,2.62-2.82,2.66-8.46.16-8.45.23-7.44-8.19,1.42-11.75,2.93-23.48,4.18-35.24.29-2.75,1.29-3.75,3.92-3.34a13.47,13.47,0,0,0,2,0C313.38,41.8,313.38,41.8,313.56,46.66Z"/><path class="cls-8" d="M109.66,33.33c-6.87.57-13.3,1.17-19.59-.88-4.27-1.4-4.9-3.73-2.18-7.31,1.28-1.68,2.59-3.34,3.88-5,0-.06,0-.19,0-.33a5.91,5.91,0,0,0-3.81,1C84,23,79.72,23,75.34,23c-17.42-.09-34.85,0-52.27,0H18.43c3.45-3,5.44-6.15,10-6.12,21.11.15,42.22.09,63.33,0a7.08,7.08,0,0,1,5.13,1.85C101.68,22.94,106.23,27.3,109.66,33.33Z"/><path class="cls-1" d="M144.19,60c1.37-2.86,3.1-3.59,5.63-3.57,14.18.12,28.36,0,42.53.11,1.11,0,3.12-1.14,3.14,1.56s-2,1.85-3.33,1.86c-7.48.07-15,.11-22.44,0-2.12,0-3.1.31-3.33,2.76-.7,7.55-1.79,15.06-2.58,22.61-.25,2.44-1.08,3.6-3.7,3.22a16,16,0,0,0-4.68,0c-3.56.54-4-1.08-3.56-4.14,1-7,1.7-14,2.71-20.91.39-2.67-.08-3.88-3.09-3.54A64.92,64.92,0,0,1,144.19,60Z"/><path class="cls-6" d="M575.42,88.55c-4.12,0-8-.08-11.92,0-1.64,0-2.38-.8-3.11-2-2.55-4.19-5.16-8.35-8-12.91-2.61,3-4.87,6.06-7.57,8.64-2.46,2.36-3.46,7.12-8.57,6,.22-1.4,1.22-2,1.91-2.84,12.06-13.93,24.17-27.82,36.2-41.77C575.69,42.14,577,41.33,579,42c.08,1.29-1,1.87-1.72,2.68-5,5.86-10,11.75-15.11,17.49-1.45,1.62-1.61,2.71-.38,4.54,4.13,6.1,8.08,12.32,12.07,18.52C574.44,86.18,575.3,87,575.42,88.55Z"/><path class="cls-6" d="M532.85,41.84c4,0,8,0,11.94,0,1.47,0,1.82,1.08,2.41,2,2.37,3.62,4.72,7.26,7.16,11,4.16-4.47,8.06-8.75,12.1-12.88.44-.44,1.71-.06,2.6-.06.35,1-.51,1.42-1,1.94-12.4,14.25-24.85,28.44-37.2,42.74-1.63,1.89-3.32,2.3-6,1.58L530.27,82c4.68-5.26,9.29-10.58,14.1-15.73,1.48-1.59,1.66-2.67.43-4.52-3.65-5.48-7.1-11.09-10.58-16.69C533.66,44.2,532.73,43.43,532.85,41.84Z"/><path class="cls-9" d="M62,40.54c0,1.05-.92,1.26-1.5,1.79-.09-1.34-1-1-1.69-.7a38.73,38.73,0,0,0-6.75,2.82c-3.4,2.13-7,2.53-10.84,2.48-11.27-.15-22.54,0-33.82-.09-1,0-3.11.69-2.87-.94.25-1.83.3-4.42,2.92-5.09a10.14,10.14,0,0,1,2.34,0H58.67C59.78,40.76,60.89,40.62,62,40.54Z"/><path class="cls-10" d="M366.12,127c1.76-5.1,3.42-9.35,4.67-13.73.68-2.36,2.1-2.58,4-2.32,2.17.3,1.25,2.08,1.27,3.18.11,5.13.05,10.27,0,15.4,0,1.1.21,2.28-1.59,2.25s-1.45-1.31-1.46-2.35c0-4,0-8,0-12.29-1.68.67-1.46,2.22-1.88,3.3-1.15,3-2.14,6.1-3.18,9.16-.35,1.05-.48,2.14-2.05,2.19-1.73.05-1.89-1.16-2.29-2.32-1.35-4-2.73-7.88-4.09-11.81l-.88.14c0,3.83,0,7.67,0,11.5,0,1,.53,2.41-1.33,2.44s-1.49-1.29-1.49-2.35c0-5.25,0-10.49,0-15.74,0-1.07-.61-2.71,1.44-2.69,1.55,0,3.28-.64,4,1.82C362.6,117.22,364.27,121.6,366.12,127Z"/><path class="cls-11" d="M614.64,18.17c2.11-1.25,3.75-2.13,5.28-3.18,1.25-.86,1.88-.49,2.61.7s.68,2-.66,2.62c-1.68.83-3.28,1.8-5.32,2.94,2.07,1.17,3.65,2.18,5.33,3,1.45.69,1.28,1.49.65,2.64s-1.33,1.61-2.6.74c-1.55-1.06-3.2-2-5.29-3.21,0,2.27-.09,4.1,0,5.91.11,1.61-.48,2.16-2.09,2.13s-1.66-.88-1.55-2.17c.14-1.76,0-3.54,0-5.85-1.86,1.13-3.5,2-5,3.06-1.3.9-2,.76-2.89-.66s-.24-2.09,1-2.78c1.52-.83,3.26-1.36,4.68-3-1.75-1-3.35-2-5-2.77-1.4-.68-1.32-1.42-.6-2.6s1.38-1.56,2.63-.7c1.53,1,3.16,1.92,5.25,3.16,0-2.25.07-3.88,0-5.5-.07-1.27-.44-2.38,1.58-2.44s2.06,1.06,2,2.51S614.64,15.84,614.64,18.17Z"/><path class="cls-8" d="M36.71,10.8c15.53-7,31-7,46.55,0Z"/><path class="cls-10" d="M262.33,125.59c.25,2.51.51,5.45-3.77,6.2-4.83.84-8.59-.4-10.28-4.13a16.64,16.64,0,0,1-.35-12.7c1-2.92,3.44-4.24,6.55-4.26,2.75,0,5.48.08,7,2.88.5.94,1.6,2.43-.1,3.08-1.15.45-3,.88-3.46-1.31a2.75,2.75,0,0,0-3.06-2.46,3.38,3.38,0,0,0-3.18,2.56A17,17,0,0,0,252,127.2a4,4,0,0,0,3.63,2.56c1.8.11,3.25-.38,2.92-2.55s1.66-5.58-3-5.29c-.63,0-1-.45-1-1.1s.24-1.12.92-1.14c1.89,0,3.79-.07,5.68,0,1.07,0,1.14.87,1.15,1.68C262.34,122.56,262.33,123.79,262.33,125.59Z"/><path class="cls-10" d="M279.24,121.23c2.83,2.49,2.59,5.94,3.39,9,.17.65.21,1.48-.78,1.44s-2.37.63-2.8-1-.74-3-1.07-4.55a3.85,3.85,0,0,0-2-3c-1.69-.82-3.06-.93-3,1.65.07,1.67-.05,3.35,0,5,.07,1.5-.63,1.91-2,1.88s-1.79-.5-1.79-1.79q.06-8.7,0-17.39c0-1.34.62-1.74,1.85-1.7,1.55.06,3.13-.06,4.67.08,2.48.23,5.1.62,6,3.4S282.09,119.63,279.24,121.23ZM273,116.84c.66,1.09-1.09,3.42,1.69,3.4,2.26,0,3.84-1.2,3.88-3.63s-1.71-3.21-3.75-3.26C272,113.29,273.48,115.55,273,116.84Z"/><path class="cls-10" d="M450.76,121.2a16.91,16.91,0,0,1,1-5.9,7,7,0,0,1,7-4.59c3.51,0,6,1.25,7.34,4.59a17.6,17.6,0,0,1,.49,10.5c-1,4.41-3.51,6.25-7.81,6.19-4.1-.06-6.48-1.94-7.52-6.18A37,37,0,0,1,450.76,121.2Zm4.89,6.26a3.57,3.57,0,0,0,3.36,2.32,3.17,3.17,0,0,0,3.12-2.13,17.05,17.05,0,0,0-.05-12.7,3.15,3.15,0,0,0-3.16-2.07,3.55,3.55,0,0,0-3.15,2.14C454.69,117,454.65,125.47,455.65,127.46Z"/><path class="cls-10" d="M327.54,121.38a15.83,15.83,0,0,1,.65-5.59c1.35-3.53,3.47-5,7.35-5.05s6.06,1.48,7.38,5c1,2.69.88,5.48.66,8.25-.41,5.3-3.43,8.13-8.31,8-4.62-.12-7.39-3.09-7.73-8.28C327.5,122.93,327.54,122.15,327.54,121.38Zm4.51,5.6c.65,1.54,1.55,2.73,3.38,2.79a3.37,3.37,0,0,0,3.51-2.56,17.85,17.85,0,0,0,0-11.79,3.37,3.37,0,0,0-3.2-2.53c-1.82,0-2.8,1-3.53,2.58C331.28,117.36,331.29,125.18,332.05,127Z"/><path class="cls-10" d="M302.74,119.6c0,2.12.11,4.25,0,6.36-.27,4.35-2.4,6.09-7.14,6-4.54-.05-6.7-1.79-6.87-6-.18-4.35,0-8.72-.07-13.07,0-1.29.15-2.11,1.78-2.09s1.85.8,1.84,2.09c0,3.46,0,6.92,0,10.39a27.52,27.52,0,0,0,.1,3c.21,2,1,3.4,3.32,3.44s3.32-1.39,3.4-3.33c.2-4.35.11-8.71.21-13.06,0-.89-.53-2.17,1-2.44s2.66-.13,2.55,1.93c-.12,2.22,0,4.46,0,6.7Z"/><path class="cls-10" d="M415.44,131.42c-6.31,1.65-5.52-4.71-8.48-6.56-5.28,6.82-5.28,6.82-7.83,6.59,1.65-2.8,3.13-5.48,4.78-8a3.65,3.65,0,0,0,.06-4.54c-1.57-2.4-2.87-5-4.34-7.57,3.18-.53,3.18-.53,7.77,5.58,2.75-1.34,1.92-7.18,7.35-5.63-1.49,2.56-2.77,5-4.31,7.31a3.41,3.41,0,0,0,0,4.25C412.17,125.53,413.69,128.36,415.44,131.42Z"/><path class="cls-10" d="M310.2,120.92c0-2.67,0-5.34,0-8,0-1.35.34-2.12,1.87-2,2,.14,4,.05,6,.31,3.11.39,4.68,2.31,4.76,5.44.08,3.28-1.38,5.49-4.77,5.7-3.8.23-4.58,2-4.08,5.25a22.78,22.78,0,0,1,0,2.34c.07,1.22-.36,1.84-1.71,1.83s-2.22-.23-2.07-1.8c0-.12,0-.23,0-.34Zm5.47-.61A3.1,3.1,0,0,0,319,117c.1-2.38-1.22-3.58-3.44-3.59C312.85,113.38,312.68,120.4,315.67,120.31Z"/><path class="cls-10" d="M384,121.27c0-2.67.06-5.35,0-8-.06-1.62.32-2.5,2.19-2.4,2.45.13,4.9,0,7.35,0,1,0,1.85.23,1.74,1.45s-1,1-1.79,1a12.09,12.09,0,0,1-2.33,0c-2.6-.37-3.43.6-3.43,3.28s.82,3.43,3.25,3.06a16.64,16.64,0,0,1,2,0c.94,0,1.85,0,1.78,1.32-.06,1.07-.81,1.18-1.64,1.18h-1.34c-3.65,0-5.2,2.43-3.87,6,.62,1.65,2.09.67,3.13,1,1.46.47,4.26-1.28,4.19,1.47-.06,2.26-2.7,1.05-4.11,1.08-7.1.15-7.1.07-7.1-7.07Z"/><path class="cls-10" d="M444.69,127.9c.86,2.42-.13,3.42-2.3,3.87-6.66,1.39-11.19-2-11.57-8.83-.15-2.67-.21-5.35.93-7.88,2.1-4.67,9.36-6.06,12.68-2.42a4,4,0,0,1,1.27,3.63c-.19.9-1.06.56-1.67.65-1.62.24-2.16-.52-2.74-2-1-2.7-3.76-2.72-5.43-.28-1.9,2.79-1.6,10.54.51,13.12C438.22,130,440.19,130,444.69,127.9Z"/><path class="cls-9" d="M22.74,64.68c-3.59,2.12-6.39,4.27-9.54,5.5C9.65,71.57,5.67,71,2,70.44c-1.65-.27-.83-2.93-.91-4.51S2.38,64.7,3.32,64.7C9.56,64.67,15.8,64.68,22.74,64.68Z"/><path class="cls-10" d="M420.49,121.29c0-2.79,0-5.57,0-8.36,0-1.32.31-2.05,1.85-2.06s1.78.84,1.77,2.11q0,8.35,0,16.71c0,1.34-.31,2.06-1.85,2.06s-1.8-.84-1.78-2.11C420.52,126.86,420.49,124.07,420.49,121.29Z"/></svg>