<svg id="Layer_1" data-name="Layer 1" xmlns="http://www.w3.org/2000/svg" viewBox="0 0 65.43 66.74"><defs><style>.cls-1{fill:#fff;}</style></defs><title>logotipo-small</title><path class="cls-1" d="M37.41,53.12c-10-5.88-22.75-3.51-29.59-7.58C4.91,43.8,4.22,42,4.75,40.34H1.61a33,33,0,0,0,32.18,27,32,32,0,0,0,8.69-1.23c1.29-4.69.65-9.64-5.07-13m-24-19.44H1c0,.12,0,.21,0,.33,0,1,.06,2,.15,3H7.41a26.77,26.77,0,0,1,6-3.35M34.47,20.57c-.85,1-1.74,2-2.63,3.19a4.82,4.82,0,0,0-.38.55c-.53.83-1.19,2.68,2.25,3.85a24.35,24.35,0,0,0,6.14,1.07H40l1.77.08h.17c.6,0,1.21,0,1.84,0h.18l1.82,0h.33l1.56-.05.77,0,.89,0c2.09-.1,4.24-.24,6.39-.37,3.55-.2,7.1-.35,10.42-.23a.25.25,0,0,1,0-.08h0a30.55,30.55,0,0,0-1.88-6.87h0v0c-5.59.55-11.16,1.2-15.7.83l-.18,0-.4-.05a14.93,14.93,0,0,1-5.43-1.55c-1.9-1-2.78-2-3-3.07a2.23,2.23,0,0,1,0-.27.22.22,0,0,1,0-.08,3.67,3.67,0,0,1,.8-2.28l0-.06a3.3,3.3,0,0,1,.22-.3l.17-.21a11.09,11.09,0,0,1,.84-.84H7.81a32.94,32.94,0,0,0-2.22,3.35H37.8c-1,.94-2,2.05-3.14,3.31H3.89a32.13,32.13,0,0,0-1.28,3.35H26.85c3.43-2.18,7.56-3.54,7.62-3.14M51.87,8.51l-2.7,3.3c-.12.17-2.47,2.88,1.81,4.06,2.88.79,6.53.73,10.53.34A33.53,33.53,0,0,0,53,7H14.53a33.62,33.62,0,0,0-3.9,3.35h36c3-1.53,5.74-2.36,5.25-1.88M33.79.64A32,32,0,0,0,20.08,3.73H47.51A32.08,32.08,0,0,0,33.79.64M66.42,37.28v0c-11.07-3.69-31.58,1.09-40.55-3.76a7.37,7.37,0,0,1-.69-.38A.57.57,0,0,0,25,33c-.13-.1-.29-.19-.42-.28l-.19-.14-.32-.26-.17-.15-.28-.25-.14-.15a2.77,2.77,0,0,1-.24-.25.85.85,0,0,0-.11-.14c-.06-.09-.15-.18-.21-.28l-.06-.1c-.06-.11-.13-.22-.18-.32l0-.07a1.76,1.76,0,0,1-.15-.35s0,0,0,0A3.57,3.57,0,0,1,23.11,27H1.73a33.2,33.2,0,0,0-.53,3.34H19.09a66.19,66.19,0,0,0-4.78,5.53l0,.05a2.27,2.27,0,0,0-.21.27c-.52.7-1.55,2.64,1.81,4a15.1,15.1,0,0,0,2.09.67c11.28,3,35.51.72,45.8,6.64a0,0,0,0,0,0,0l0,0A33.86,33.86,0,0,0,66.21,39c.08-.57.16-1.14.22-1.72h0" transform="translate(-1 -0.64)"/></svg>