<?xml version="1.0" encoding="UTF-8"?>
<svg width="58px" height="43px" viewBox="0 0 58 43" version="1.1" xmlns="http://www.w3.org/2000/svg" xmlns:xlink="http://www.w3.org/1999/xlink">
    <!-- Generator: Sketch 52.6 (67491) - http://www.bohemiancoding.com/sketch -->
    <title>Shape</title>
    <desc>Created with Sketch.</desc>
    <g id="UI" stroke="none" stroke-width="1" fill="none" fill-rule="evenodd">
        <g id="1.-Homepage" transform="translate(-1084.000000, -1587.000000)" fill="#939BA1" fill-rule="nonzero">
            <g id="steps" transform="translate(250.000000, 1421.000000)">
                <g id="paga-copy" transform="translate(786.000000, 109.000000)">
                    <g id="circle">
                        <path d="M48.6626374,80.5452381 C48.2208791,80.1171429 48,79.475 48,79.0469048 C48,78.6188095 48.2208791,77.9766667 48.6626374,77.5485714 L51.7549451,74.5519048 C52.6384615,73.6957143 53.9637363,73.6957143 54.8472527,74.5519048 L55.0681319,74.7659524 L67.2164835,87.3947619 C67.6582418,87.8228571 68.3208791,87.8228571 68.7626374,87.3947619 L98.3604396,57.6421429 L98.5813187,57.6421429 C99.4648352,56.7859524 100.79011,56.7859524 101.673626,57.6421429 L104.765934,60.6388095 C105.649451,61.495 105.649451,62.7792857 104.765934,63.6354762 L69.4252747,99.167381 C68.9835165,99.5954762 68.5417582,99.8095238 67.8791209,99.8095238 C67.2164835,99.8095238 66.7747253,99.5954762 66.332967,99.167381 L49.1043956,81.187381 L48.6626374,80.5452381 Z" id="Shape"></path>
                    </g>
                </g>
            </g>
        </g>
    </g>
</svg>