<?xml version="1.0" encoding="UTF-8"?>
<svg width="10px" height="13px" viewBox="0 0 10 13" version="1.1" xmlns="http://www.w3.org/2000/svg" xmlns:xlink="http://www.w3.org/1999/xlink">
    <!-- Generator: Sketch 50.2 (55047) - http://www.bohemiancoding.com/sketch -->
    <title>question-sign</title>
    <desc>Created with Sketch.</desc>
    <defs></defs>
    <g id="UI" stroke="none" stroke-width="1" fill="none" fill-rule="evenodd">
        <g id="1.3-Homepage---menú" transform="translate(-19.000000, -205.000000)" fill="#939AA0" fill-rule="nonzero">
            <g id="Menu" transform="translate(0.000000, 50.000000)">
                <g id="question-sign" transform="translate(19.000000, 155.000000)">
                    <path d="M5.62491791,10 L3.37495075,10 C3.27506458,10 3.18752463,10.0377266 3.11252791,10.1125887 C3.03746552,10.1876478 3,10.2750525 3,10.3750657 L3,12.6250328 C3,12.725046 3.03759687,12.8125821 3.11252791,12.8875099 C3.18752463,12.9623391 3.27496607,13 3.37495075,13 L5.62491791,13 C5.72480408,13 5.81257388,12.9624376 5.88727508,12.8875099 C5.96246881,12.8125821 6,12.725046 6,12.6250328 L6,10.3750657 C6,10.2750525 5.96256731,10.1876478 5.88727508,10.1125887 C5.81257388,10.0375296 5.72480408,10 5.62491791,10 Z" id="Shape"></path>
                    <path d="M9.55631743,2.42585904 C9.26045324,1.92000704 8.87821005,1.49331535 8.40917094,1.14500997 C7.94043505,0.796845315 7.41344354,0.518799109 6.8292198,0.311293538 C6.24488234,0.103858332 5.6641835,0 5.08693374,0 C2.89395322,0 1.22030796,0.890641492 0.0659600654,2.67195966 C0.00831089452,2.75896564 -0.0115877345,2.85269145 0.006415787,2.95317228 C0.0245330149,3.05351237 0.0804386869,3.13724639 0.174208607,3.20419843 L1.9489389,4.45989211 C2.04270882,4.5133693 2.13291594,4.54014307 2.21952235,4.54014307 C2.34941302,4.54014307 2.46114856,4.48648997 2.55503219,4.37935968 C3.07436746,3.77675619 3.46040086,3.39172042 3.71286708,3.22421719 C4.02313409,3.03008092 4.41257868,2.93304797 4.88150409,2.93304797 C5.32154806,2.93304797 5.70921125,3.04021344 6.04479689,3.25433329 C6.38023092,3.46866424 6.54779633,3.71645362 6.54779633,3.99770142 C6.54779633,4.3123021 6.45777872,4.56688167 6.27736449,4.76108831 C6.09706396,4.95522458 5.79396046,5.14264102 5.3682435,5.32351355 C4.80569979,5.55786326 4.28966201,5.92119151 3.82096402,6.41339275 C3.3519249,6.90562918 3.11757591,7.42963528 3.11757591,7.98541105 L3.11757591,8.43739885 C3.11757591,8.564759 3.15525064,8.69025449 3.23113075,8.81413158 C3.30693505,8.93811423 3.39884777,9 3.50713421,9 L6.10422746,9 C6.21967741,9 6.32057294,8.94821156 6.40721725,8.84407177 C6.49359625,8.74056526 6.53707002,8.63171104 6.53707002,8.51803682 C6.53707002,8.35067433 6.63625995,8.12610531 6.8344882,7.84499824 C7.03290595,7.56375044 7.27991427,7.34590125 7.57593006,7.19183769 C7.85712612,7.04456433 8.07695859,6.92585904 8.23584441,6.83533482 C8.39488183,6.74505688 8.60213079,6.59908526 8.85831142,6.3983347 C9.11437835,6.19737305 9.31279611,5.99813533 9.45329938,5.80065674 C9.59403007,5.60314296 9.72035793,5.346945 9.83216928,5.03213322 C9.94420803,4.717427 10,4.37921895 10,4.01764982 C9.9999242,3.46183886 9.8519163,2.9311833 9.55631743,2.42585904 Z" id="Shape"></path>
                </g>
            </g>
        </g>
    </g>
</svg>