<?xml version="1.0" encoding="UTF-8"?>
<svg width="13px" height="8px" viewBox="0 0 13 8" version="1.1" xmlns="http://www.w3.org/2000/svg" xmlns:xlink="http://www.w3.org/1999/xlink">
    <!-- Generator: Sketch 50.2 (55047) - http://www.bohemiancoding.com/sketch -->
    <title>letter</title>
    <desc>Created with Sketch.</desc>
    <defs></defs>
    <g id="UI" stroke="none" stroke-width="1" fill="none" fill-rule="evenodd">
        <g id="1.3-Homepage---menú" transform="translate(-18.000000, -240.000000)" fill="#939AA0" fill-rule="nonzero">
            <g id="Menu" transform="translate(0.000000, 50.000000)">
                <g id="letter" transform="translate(18.000000, 190.000000)">
                    <path d="M1.02631579,0 L11.9736842,0 C12.466396,0.00126722636 12.8892167,0.332900373 12.9828947,0.791509601 L6.5,4.21732933 L0.0171052632,0.791509601 C0.110783297,0.332900373 0.533604021,0.00126722636 1.02631579,0 Z M11.9736842,8 L1.02631579,8 C0.460238487,7.99835261 0.00160361842,7.56356727 0,7.02677015 L0,1.52472676 L6.33242186,4.87261209 C6.38373765,4.89935057 6.44133428,4.91392365 6.5,4.91481072 C6.55893297,4.91544432 6.61679686,4.90087121 6.66757814,4.87261209 L13,1.52472676 L13,7.02677015 C12.9995991,7.56407413 12.5402961,7.99949314 11.9736842,8 Z" id="Shape"></path>
                </g>
            </g>
        </g>
    </g>
</svg>