<?xml version="1.0" encoding="UTF-8"?>
<svg width="18px" height="18px" viewBox="0 0 18 18" version="1.1" xmlns="http://www.w3.org/2000/svg" xmlns:xlink="http://www.w3.org/1999/xlink">
    <!-- Generator: Sketch 53.2 (72643) - https://sketchapp.com -->
    <title>Group</title>
    <desc>Created with Sketch.</desc>
    <g id="UI" stroke="none" stroke-width="1" fill="none" fill-rule="evenodd">
        <g id="7.1-Sigue-tu-carga---LOGIN-SIN-PAGAR-TIEMPO" transform="translate(-1097.000000, -103.000000)" fill="#DDE2E6" fill-rule="nonzero">
            <g id="Group" transform="translate(1097.000000, 103.000000)">
                <path d="M8.4375,9 C10.6120095,9 12.375,6.98526228 12.375,4.49997905 C12.375,1.05357268 10.6120953,0 8.4375,0 C6.26281884,0 4.5,1.05357268 4.5,4.49997905 C4.50004292,6.98526228 6.26286176,9 8.4375,9 Z" id="Shape"></path>
                <path d="M17.911973,16.6215355 L15.8758486,12.2035085 C15.7827176,12.0013427 15.6191114,11.8336693 15.4154726,11.7315483 L12.2555293,10.1471044 C12.185846,10.1122307 12.1014694,10.1190105 12.0388249,10.1646896 C11.145084,10.8158065 10.0942478,11.1599671 9.00003549,11.1599671 C7.90564723,11.1599671 6.854899,10.8158065 5.96115812,10.1646896 C5.89833758,10.1190105 5.81396098,10.1122307 5.7442777,10.1471044 L2.58455438,11.7315483 C2.38082757,11.8336693 2.21739739,12.001258 2.12417841,12.2035085 L0.0880540233,16.6215355 C-0.0523243561,16.9261189 -0.023553607,17.2746017 0.165039973,17.5539726 C0.353545568,17.8333012 0.672575342,18 1.01848421,18 L16.9814548,18 C17.3273637,18 17.6464814,17.8332164 17.834987,17.5539302 C18.0234926,17.2746017 18.0523513,16.9259918 17.911973,16.6215355 Z" id="Shape"></path>
            </g>
        </g>
    </g>
</svg>