<?xml version="1.0" encoding="UTF-8"?>
<svg width="62px" height="64px" viewBox="0 0 62 64" version="1.1" xmlns="http://www.w3.org/2000/svg" xmlns:xlink="http://www.w3.org/1999/xlink">
    <!-- Generator: Sketch 50.2 (55047) - http://www.bohemiancoding.com/sketch -->
    <title>002-pay</title>
    <desc>Created with Sketch.</desc>
    <defs></defs>
    <g id="UI" stroke="none" stroke-width="1" fill="none" fill-rule="evenodd">
        <g id="1.-Homepage" transform="translate(-689.000000, -906.000000)" fill="#939BA1" fill-rule="nonzero">
            <g id="process" transform="translate(261.000000, 751.000000)">
                <g id="steps" transform="translate(0.000000, 110.000000)">
                    <g id="paga" transform="translate(372.000000, 0.000000)">
                        <g id="circle" transform="translate(10.000000, 0.000000)">
                            <g id="002-pay" transform="translate(46.000000, 45.000000)">
                                <path d="M60.3519513,30.2708523 L32.1535237,1.68968422 C31.0425162,0.563711118 29.5869105,0 28.1313049,0 C26.6756992,0 25.2186637,0.563711118 24.1090861,1.68968422 L8.6665112,17.3373774 C6.44449627,19.5893236 6.44449627,23.3106865 8.6665112,25.5626327 L11.225975,28.2275806 L17.1299001,28.2275806 L11.6191887,22.5701816 C11.2331243,22.1774677 11.1759296,21.6862131 11.1759296,21.4485559 C11.1759296,21.2108988 11.2331243,20.7370337 11.6191887,20.3457689 L13.6581805,18.3430728 L23.3483963,28.2275806 L32.6439684,28.2275806 L18.3052517,13.6232602 L27.0603337,4.71546524 C27.4463981,4.32420045 27.8968065,4.25029488 28.1313049,4.25029488 C28.3658032,4.25029488 28.8162117,4.29956526 29.202276,4.68938092 L57.4021335,33.2662016 C57.7896278,33.6589155 57.8482524,34.1110437 57.8482524,34.35015 C57.8482524,34.5878071 57.7481616,35.0428336 57.3606674,35.4355475 L55.7620749,37.016547 L55.7620749,43 L60.3147748,38.4279985 C62.5353598,36.1717049 62.5753961,32.5227985 60.3519513,30.2708523 Z" id="Shape"></path>
                                <path d="M45.4181013,30 L5.79074043,30 C2.66948019,30 0,32.5604464 0,35.7385824 L0,51 L51,51 L51,35.7385824 C51,32.5604464 48.5393615,30 45.4181013,30 Z M13.8489052,45.8038851 C12.7421862,45.8038851 11.7405984,45.3554453 11.0018385,44.6321554 C10.2630787,45.3554453 9.2600702,45.8038851 8.15619255,45.8038851 C5.88592679,45.8038851 4.04328932,43.9305642 4.04328932,41.6145898 C4.04328932,39.3015086 5.8845061,37.4267411 8.15619255,37.4267411 C9.26149089,37.4267411 10.2644994,37.8737342 11.0018385,38.5970242 C11.7405984,37.8737342 12.7421862,37.4267411 13.8489052,37.4267411 C16.1205917,37.4267411 17.9618085,39.3015086 17.9618085,41.6145898 C17.9618085,43.9305642 16.1205917,45.8038851 13.8489052,45.8038851 Z" id="Shape"></path>
                                <path d="M0,58.3323864 C0,61.453125 2.66798518,64 5.79057912,64 L45.4168361,64 C48.5380094,64 51,61.453125 51,58.3323864 L51,58 L0,58 L0,58.3323864 Z" id="Shape"></path>
                            </g>
                        </g>
                    </g>
                </g>
            </g>
        </g>
    </g>
</svg>