<?xml version="1.0" encoding="UTF-8"?>
<svg width="13px" height="13px" viewBox="0 0 13 13" version="1.1" xmlns="http://www.w3.org/2000/svg" xmlns:xlink="http://www.w3.org/1999/xlink">
    <!-- Generator: Sketch 50.2 (55047) - http://www.bohemiancoding.com/sketch -->
    <title>customer-support</title>
    <desc>Created with Sketch.</desc>
    <defs></defs>
    <g id="UI" stroke="none" stroke-width="1" fill="none" fill-rule="evenodd">
        <g id="1.3-Homepage---menú" transform="translate(-18.000000, -169.000000)" fill="#939AA0" fill-rule="nonzero">
            <g id="Menu" transform="translate(0.000000, 50.000000)">
                <g id="customer-support" transform="translate(18.000000, 119.000000)">
                    <path d="M1.55699858,2.17728478 C1.5960385,2.1870804 1.63176559,2.20732851 1.66023874,2.23577295 L4.84109211,5.41666667 L5.41666667,4.84115226 L2.23575618,1.66025854 C2.20722591,1.63175698 2.18706338,1.59591585 2.17721059,1.55676191 L1.97701322,0.758718306 L0.649884629,0 L0,0.649852639 L0.758950777,1.97788811 L1.55699858,2.17728478 Z" id="Shape"></path>
                    <path d="M4.65192052,9.87345696 L9.90445508,4.62090883 C9.96199072,4.56331458 10.0454709,4.54022339 10.1244041,4.55986725 C10.8159611,4.73710776 11.5505213,4.58352309 12.1133661,4.14440408 C12.6763,3.70525535 13.003742,3.02993452 12.9999677,2.31606894 C12.9999677,2.27259093 12.9986898,2.22878601 12.9958665,2.18459476 L11.7741851,3.40610997 C11.7122808,3.46807283 11.6204794,3.48979697 11.5372667,3.46204 L10.1477631,2.99881936 C10.0785777,2.97590648 10.0243111,2.92164069 10.0012196,2.8525157 L9.53811114,1.46300239 C9.51032404,1.37990975 9.53198907,1.28807991 9.59404197,1.22605762 L10.8156936,0.00445325019 C10.0800339,-0.0413130868 9.36681185,0.267758229 8.89692753,0.835617341 C8.42710265,1.40359532 8.25731901,2.16206821 8.44006006,2.87605267 C8.4598528,2.9551036 8.43679099,3.03855285 8.37919591,3.09611739 L3.1267505,8.3483089 C3.0691257,8.40545737 2.98573468,8.42863772 2.90674205,8.40929105 C2.72388213,8.36233598 2.53582142,8.33799662 2.34692858,8.33725366 C1.34953514,8.33068589 0.45835679,8.95943799 0.129963788,9.90142198 C-0.198250898,10.8433168 0.109130894,11.8897907 0.894658834,12.5045454 C1.68018677,13.1193001 2.76985715,13.1663146 3.60531271,12.6212793 C4.44082772,12.0762736 4.83697964,11.0601422 4.59075918,10.0934028 C4.57117448,10.0145005 4.59432544,9.93090263 4.65192052,9.87345696 Z M2.91063522,11.5794712 L1.78340025,11.5794712 L1.22745022,10.6531785 L1.78340025,9.72673725 L2.91063522,9.72673725 L3.46646637,10.6531785 L2.91063522,11.5794712 Z M3.80439911,8.86829167 L8.89927532,3.77342934 L9.22668759,4.10089635 L4.13181139,9.19575867 L3.80439911,8.86829167 Z" id="Shape"></path>
                    <path d="M10.8333333,12.8974474 C11.4220216,13.1187854 12.0857331,12.9752514 12.5304798,12.5305405 C12.9752605,12.0856939 13.1188289,11.4218834 12.8973883,10.8333333 L10.8333333,12.8974474 Z" id="Shape"></path>
                    <path d="M12.9138904,10.7801798 L10.1225676,7.98776814 C9.81467789,8.24657282 9.36001914,8.22689537 9.07544282,7.94267266 C8.7908346,7.65851372 8.77077426,7.203987 9.02913498,6.8957814 L8.63382808,6.5 L6.5,8.63390281 L6.89769884,9.03156586 C7.20558855,8.77276117 7.66031108,8.79237483 7.94472794,9.07650187 C8.22930425,9.36072459 8.24949217,9.81531509 7.99109956,10.1235526 L10.7800623,12.913955 C10.8104877,12.9443801 10.8426034,12.9725728 10.875038,13 L13,10.8750589 C12.9726363,10.8425608 12.9443158,10.810573 12.9138904,10.7801798 Z M11.4403955,11.7917983 L8.95517639,9.30660364 L9.3065355,8.95518419 L11.7918184,11.4405064 L11.4403955,11.7917983 Z" id="Shape"></path>
                </g>
            </g>
        </g>
    </g>
</svg>