<?xml version="1.0" encoding="UTF-8"?>
<svg width="22px" height="15px" viewBox="0 0 22 15" version="1.1" xmlns="http://www.w3.org/2000/svg" xmlns:xlink="http://www.w3.org/1999/xlink">
    <!-- Generator: Sketch 52.6 (67491) - http://www.bohemiancoding.com/sketch -->
    <title>amex</title>
    <desc>Created with Sketch.</desc>
    <g id="UI" stroke="none" stroke-width="1" fill="none" fill-rule="evenodd">
        <g id="4.3-Método-de-pago" transform="translate(-286.000000, -545.000000)" fill="#939BA1" fill-rule="nonzero">
            <g id="Content" transform="translate(249.000000, 169.000000)">
                <g transform="translate(0.000000, 138.000000)" id="li">
                    <g transform="translate(1.000000, 230.750000)">
                        <g id="amex" transform="translate(36.000000, 8.000000)">
                            <path d="M15.8519023,5.5 L13.75,5.5 L13.75,6.41665234 L14.6666523,6.41665234 C14.9196523,6.41665234 15.125,6.622 15.125,6.875 C15.125,7.128 14.9196523,7.33334766 14.6666523,7.33334766 L13.75,7.33334766 L13.75,8.25 L15.8519023,8.25 L17.2269023,6.875 L15.8519023,5.5 Z" id="Shape"></path>
                            <polygon id="Shape" points="4.68325 5.5 4.40825 5.5 3.49155469 7.33334766 5.14159766 7.33334766"></polygon>
                            <path d="M18.7916523,0 L3.20834766,0 C1.43915234,0 0,1.43919531 0,3.20834766 L0,10.5416953 C0,12.3108477 1.43915234,13.75 3.20834766,13.75 L18.7916953,13.75 C20.5608477,13.75 22,12.3108477 22,10.5416523 L22,3.20834766 C22,1.43919531 20.5608477,0 18.7916523,0 Z M11.9166523,8.70834766 C11.9166523,8.96134766 11.7113047,9.16669531 11.4583047,9.16669531 C11.2053047,9.16669531 10.999957,8.96134766 10.999957,8.70834766 L10.999957,6.63944531 L9.55530469,8.95129297 C9.38845703,9.21894531 8.94480469,9.21894531 8.77795703,8.95129297 L7.33330469,6.63944531 L7.33330469,8.70834766 C7.33330469,8.96134766 7.12795703,9.16669531 6.87495703,9.16669531 L5.95830469,9.16669531 C5.74840234,9.16669531 5.56415234,9.02369531 5.51375,8.81929297 L5.37079297,8.25 L3.20834766,8.25 C3.1515,8.25 3.09929297,8.23625 3.04884766,8.21790234 L2.70144531,8.91365234 C2.62075,9.07405469 2.45944531,9.16665234 2.29169531,9.16665234 C2.22294531,9.16665234 2.15329297,9.15105469 2.08634766,9.11805469 C1.85990234,9.00440234 1.76829297,8.72935938 1.881,8.503 L3.71434766,4.83634766 C3.79319531,4.68144531 3.95175,4.58334766 4.125,4.58334766 L5.04165234,4.58334766 C5.25155469,4.58334766 5.43580469,4.72634766 5.48620703,4.93075 L6.31675,8.25 L6.41665234,8.25 L6.41665234,5.04165234 C6.41665234,4.83725 6.55140234,4.65755469 6.7485,4.60165234 C6.94559766,4.54480469 7.15459766,4.6255 7.26369531,4.79875 L9.16669531,7.84390234 L11.0696953,4.79875 C11.1769453,4.6255 11.3868906,4.54480469 11.5848906,4.60165234 C11.7819883,4.65755469 11.9167383,4.83720703 11.9167383,5.04165234 L11.9167383,8.70834766 L11.9166523,8.70834766 Z M20.0328477,9.03190234 C19.943,9.12170703 19.8256523,9.16665234 19.7083477,9.16665234 C19.591043,9.16665234 19.4736523,9.12170703 19.3838477,9.03280469 L17.875,7.52309766 L16.3661523,9.03194531 C16.28,9.11809766 16.1635547,9.16669531 16.0416523,9.16669531 L13.2916523,9.16669531 C13.0386523,9.16669531 12.8333047,8.96134766 12.8333047,8.70834766 L12.8333047,5.04169531 C12.8333047,4.78869531 13.0386523,4.58334766 13.2916523,4.58334766 L16.0416523,4.58334766 C16.1635547,4.58334766 16.28,4.63194531 16.3661523,4.71719531 L17.875,6.226 L19.3838477,4.71715234 C19.5625977,4.53840234 19.8531953,4.53840234 20.0319453,4.71715234 C20.2106953,4.89590234 20.2106953,5.18645703 20.0319453,5.36525 L18.5230977,6.875 L20.0328477,8.38384766 C20.2115977,8.56259766 20.2115977,8.85315234 20.0328477,9.03190234 Z" id="Shape"></path>
                        </g>
                    </g>
                </g>
            </g>
        </g>
    </g>
</svg>