<?xml version="1.0" encoding="UTF-8"?>
<svg width="16px" height="16px" viewBox="0 0 16 16" version="1.1" xmlns="http://www.w3.org/2000/svg" xmlns:xlink="http://www.w3.org/1999/xlink">
    <!-- Generator: Sketch 50.2 (55047) - http://www.bohemiancoding.com/sketch -->
    <title>house-black-silhouette-without-door</title>
    <desc>Created with Sketch.</desc>
    <defs></defs>
    <g id="UI" stroke="none" stroke-width="1" fill="none" fill-rule="evenodd">
        <g id="1.3-Homepage---menú" transform="translate(-16.000000, -60.000000)" fill="#939AA0" fill-rule="nonzero">
            <g id="Menu" transform="translate(0.000000, 50.000000)">
                <g id="house-black-silhouette-without-door" transform="translate(16.000000, 10.000000)">
                    <path d="M15.7995418,7.41613171 C16.0895798,7.10311671 16.0615721,6.62335827 15.7370071,6.34483838 L8.58640608,0.205117725 C8.26184105,-0.0734021633 7.74148345,-0.0675676784 7.42375082,0.218270906 L0.248845218,6.6721837 C-0.0688874131,6.95802228 -0.0844819727,7.43716657 0.214318133,7.74194164 L0.394203203,7.92577909 C0.692638219,8.23055416 1.17502645,8.26689174 1.47095799,8.00669419 L2.00717093,7.53548276 L2.00717093,14.4340959 C2.00717093,14.857352 2.35666639,15.2 2.78768124,15.2 L5.58447944,15.2 C6.01549429,15.2 6.36498975,14.857352 6.36498975,14.4340959 L6.36498975,9.60785087 L9.93233652,9.60785087 L9.93233652,14.4340959 C9.92612999,14.8570449 10.2345268,15.1996929 10.6655416,15.1996929 L13.6294467,15.1996929 C14.0604616,15.1996929 14.409957,14.8570449 14.409957,14.4337888 L14.409957,7.63262181 C14.409957,7.63262181 14.5580793,7.75995689 14.7407808,7.91753916 C14.9231693,8.07481436 15.306253,7.94870759 15.596291,7.63538552 L15.7995418,7.41613171 Z" id="Shape"></path>
                </g>
            </g>
        </g>
    </g>
</svg>