<?xml version="1.0" encoding="UTF-8"?>
<svg width="55px" height="73px" viewBox="0 0 55 73" version="1.1" xmlns="http://www.w3.org/2000/svg" xmlns:xlink="http://www.w3.org/1999/xlink">
    <!-- Generator: Sketch 50.2 (55047) - http://www.bohemiancoding.com/sketch -->
    <title>shopping-support-online</title>
    <desc>Created with Sketch.</desc>
    <defs></defs>
    <g id="UI" stroke="none" stroke-width="1" fill="none" fill-rule="evenodd">
        <g id="1.-Homepage" transform="translate(-502.000000, -902.000000)">
            <g id="process" transform="translate(261.000000, 751.000000)">
                <g id="steps" transform="translate(0.000000, 110.000000)">
                    <g id="registra" transform="translate(181.000000, 0.000000)">
                        <g id="circle" transform="translate(10.000000, 0.000000)">
                            <g id="shopping-support-online" transform="translate(50.000000, 41.000000)">
                                <g id="Group-3" transform="translate(0.000000, 32.000000)">
                                    <polygon id="Clip-2" points="0.125454545 0.425647059 25.7767273 0.425647059 25.7767273 35.2249412 0.125454545 35.2249412"></polygon>
                                    <path d="M10.6427273,17.8136471 L12.4639091,15.9691765 L25.7767273,15.9691765 L17.2834545,0.425647059 L11.0023636,1.71529412 C9.35263636,2.05411765 8.03745455,3.312 7.60463636,4.95741176 L0.146363636,29.6089412 C-0.204909091,30.9494118 0.0815454545,32.3809412 0.915818182,33.48 C1.75636364,34.5811765 3.04645455,35.2249412 4.41809091,35.2249412 L10.6427273,35.2249412 L10.6427273,17.8136471 Z" id="Fill-1" fill="#939BA1"></path>
                                </g>
                                <path d="M54.8516326,61.3381725 L47.331081,36.4854825 C46.8945262,34.8095645 45.5426828,33.5350128 43.8534058,33.2083689 L37.5349614,32 L29,47.587105 L43.4505944,47.587105 L45.2790628,49.4466268 L45.2790628,67 L50.551463,67 C51.926505,67 53.2382782,66.3509821 54.0776443,65.2408198 C54.9170104,64.1327925 55.2059379,62.6895816 54.8516326,61.3381725 Z" id="Fill-4" fill="#939BA1"></path>
                                <polygon id="Fill-5" fill="#939BA1" points="14.5090371 66.9912984 14 66.9912984 14 67 40.4909629 67 40.4909629 66.9912984 41 66.9912984 41 51 14.5090371 51"></polygon>
                                <g id="Group-9" transform="translate(6.000000, 0.000000)">
                                    <polygon id="Clip-7" points="0.749154412 0.769790984 40.9840221 0.769790984 40.9840221 72.1045533 0.749154412 72.1045533"></polygon>
                                    <polygon id="Fill-6" fill="#939BA1" points="0.749154412 72.1045533 40.9840221 72.1045533 40.9840221 68.8081844 0.749154412 68.8081844"></polygon>
                                    <path d="M6.53769118,21.9741967 C6.61155147,22.1145123 6.70229412,22.3344098 6.80147794,22.5626844 C7.18766176,23.4967254 7.51053676,24.1920205 7.94736765,24.6004016 C9.99013235,31.2098934 15.2574265,35.7921393 20.8560368,35.7670082 C26.4272132,35.7502541 31.6290882,31.1365943 33.6001029,24.5103484 C34.0284926,24.0935902 34.3344853,23.4066721 34.7122279,22.4810082 C34.8114118,22.2443566 34.9021544,22.024459 34.9675735,21.8757664 C35.7272794,20.3302008 35.4634926,18.6526967 34.4083456,17.8359344 L34.4083456,17.6788648 C34.3830221,9.48192213 33.3025515,0.73 20.7315294,0.769790984 C8.06976471,0.81167623 7.03994118,9.19710246 7.06526471,17.768918 C7.06526471,17.8275574 7.06526471,17.8757254 7.06526471,17.9259877 C6.02488971,18.751127 5.77798529,20.4286311 6.53769118,21.9741967 Z M8.31033824,19.3312377 L8.34199265,19.3165779 C8.55724265,19.2411844 8.72184559,19.0945861 8.82102941,18.9144795 L11.0220662,19.2495615 C11.2267647,19.2746926 11.4335735,19.1678852 11.515875,18.9731189 L12.9002279,15.7982172 C14.4745074,16.1751844 20.4107647,17.4987582 25.0681838,17.4840984 C26.5095147,17.4840984 27.7060515,17.3437828 28.62825,17.073623 L29.5103529,19.1762623 C29.5863235,19.3563689 29.7593676,19.4715533 29.9408529,19.4631762 C29.9809485,19.4631762 30.0231544,19.4631762 30.06325,19.4464221 L32.6188162,18.734373 C32.718,18.9647418 32.9079265,19.1448484 33.1463897,19.2349016 L33.1885956,19.2411844 C33.5663382,19.429668 33.6908456,20.2569016 33.2856691,21.0736639 C33.1949265,21.2705246 33.0894118,21.5155533 32.9817868,21.7857131 C32.825625,22.1710574 32.5111912,22.9480287 32.3128235,23.1616434 C32.0996838,23.2747336 31.9435221,23.4799713 31.8759926,23.716623 C30.2109706,29.7062131 25.6696176,33.9010205 20.8391544,33.9177746 C15.9918088,33.9345287 11.3850368,29.7711352 9.64404412,23.7899221 C9.57018382,23.5532705 9.41402206,23.3564098 9.19877206,23.2349426 C9.01095588,23.0297049 8.67119853,22.2443566 8.51503676,21.8590123 C8.40741176,21.5972295 8.30189706,21.3522008 8.20271324,21.1574344 C7.80597794,20.3385779 7.93048529,19.5197213 8.31033824,19.3312377 Z" id="Fill-8" fill="#939BA1"></path>
                                </g>
                            </g>
                        </g>
                    </g>
                </g>
            </g>
        </g>
    </g>
</svg>