<?xml version="1.0" encoding="UTF-8"?>
<svg width="52px" height="66px" viewBox="0 0 52 66" version="1.1" xmlns="http://www.w3.org/2000/svg" xmlns:xlink="http://www.w3.org/1999/xlink">
    <!-- Generator: Sketch 50.2 (55047) - http://www.bohemiancoding.com/sketch -->
    <title>001-hand</title>
    <desc>Created with Sketch.</desc>
    <defs></defs>
    <g id="UI" stroke="none" stroke-width="1" fill="none" fill-rule="evenodd">
        <g id="1.-Homepage" transform="translate(-312.000000, -905.000000)" fill="#939BA1" fill-rule="nonzero">
            <g id="process" transform="translate(261.000000, 751.000000)">
                <g id="steps" transform="translate(0.000000, 110.000000)">
                    <g id="cotiza">
                        <g id="circle">
                            <g id="001-hand" transform="translate(51.000000, 44.000000)">
                                <path d="M51.7296782,32.7283679 C50.6722592,26.4293039 46.2316042,25.4226656 44.1451024,25.3042706 C43.488038,25.2669565 42.8781073,24.9339355 42.5175916,24.3834828 C41.0059509,22.0759021 38.9800494,21.4656908 37.2593938,21.4656908 C36.0235405,21.4656908 34.9450797,21.7804757 34.3278545,22.0077268 C34.2507013,22.0363436 34.1710232,22.0498103 34.0930283,22.0498103 C33.8489438,22.0498103 33.615801,21.9179485 33.4861837,21.6957475 C31.9509762,19.0621596 29.7682434,18.3826508 27.9249844,18.3826508 C26.8521347,18.3826508 25.8945939,18.6127074 25.2462269,18.8214418 C25.1786126,18.8430447 25.0318814,18.8534253 24.9653894,18.8534253 C24.6130099,18.8534253 24.2255608,18.5644516 24.2255608,18.186822 L24.2255608,4.6437782 C24.2255608,1.54783255 21.9182606,0 19.5963715,0 C17.2744824,0 14.9671823,1.54783255 14.9671823,4.6437782 L14.9671823,28.4664277 C14.9671823,29.8661262 13.8979799,30.7316443 12.7457326,30.7316443 C12.045743,30.7316443 11.3712842,30.4123705 10.9075236,29.6997559 L8.68074331,26.2542364 C7.69654962,24.6303729 6.27468713,23.9570363 4.85815522,23.9567557 C1.65643961,23.9564752 -1.47513677,27.3958225 0.749679632,31.0671904 L18.2819623,64.6476097 C18.3964296,64.8670052 18.6256446,65.0328143 18.8733763,65.0328143 L43.4942103,65.0328143 C43.8457481,65.0328143 44.1364051,64.7312156 44.1577274,64.3805195 L44.7738304,54.3320927 C44.7808443,54.2162227 44.8192806,54.0964249 44.8832476,53.9993522 C50.9948996,44.7426571 52.7447332,38.7766141 51.7296782,32.7283679 Z" id="Shape"></path>
                            </g>
                        </g>
                    </g>
                </g>
            </g>
        </g>
    </g>
</svg>