<?xml version="1.0" encoding="UTF-8"?>
<svg width="17px" height="17px" viewBox="0 0 17 17" version="1.1" xmlns="http://www.w3.org/2000/svg" xmlns:xlink="http://www.w3.org/1999/xlink">
    <!-- Generator: Sketch 53 (72520) - https://sketchapp.com -->
    <title>Shape</title>
    <desc>Created with Sketch.</desc>
    <g id="Symbols" stroke="none" stroke-width="1" fill="none" fill-rule="evenodd">
        <g id="Search" transform="translate(-213.000000, -9.000000)" fill="#939BA1" fill-rule="nonzero">
            <g id="Input">
                <path d="M229.791837,24.7926531 L225.704898,20.7057143 C226.717959,19.4706122 227.328571,17.8885714 227.328571,16.1642857 C227.328571,12.2091837 224.119388,9 220.164286,9 C216.205714,9 213,12.2091837 213,16.1642857 C213,20.1193878 216.205714,23.3285714 220.164286,23.3285714 C221.888571,23.3285714 223.467143,22.7214286 224.702245,21.7083673 L228.789184,25.7918367 C229.066735,26.0693878 229.514286,26.0693878 229.791837,25.7918367 C230.069388,25.5177551 230.069388,25.0667347 229.791837,24.7926531 Z M220.164286,21.9026531 C216.996735,21.9026531 214.422449,19.3283673 214.422449,16.1642857 C214.422449,13.0002041 216.996735,10.422449 220.164286,10.422449 C223.328367,10.422449 225.906122,13.0002041 225.906122,16.1642857 C225.906122,19.3283673 223.328367,21.9026531 220.164286,21.9026531 Z" id="Shape"></path>
            </g>
        </g>
    </g>
</svg>