<?xml version="1.0" encoding="UTF-8"?>
<svg width="62px" height="69px" viewBox="0 0 62 69" version="1.1" xmlns="http://www.w3.org/2000/svg" xmlns:xlink="http://www.w3.org/1999/xlink">
    <!-- Generator: Sketch 50.2 (55047) - http://www.bohemiancoding.com/sketch -->
    <title>delivered-box</title>
    <desc>Created with Sketch.</desc>
    <defs></defs>
    <g id="UI" stroke="none" stroke-width="1" fill="none" fill-rule="evenodd">
        <g id="1.-Homepage" transform="translate(-1072.000000, -904.000000)" fill="#939BA1" fill-rule="nonzero">
            <g id="process" transform="translate(261.000000, 751.000000)">
                <g id="steps" transform="translate(0.000000, 110.000000)">
                    <g id="recibe" transform="translate(754.000000, 0.000000)">
                        <g id="circle" transform="translate(11.000000, 0.000000)">
                            <g id="delivered-box" transform="translate(46.000000, 43.000000)">
                                <path d="M58.39,12 L49,7.79 L19.33,21.73 L19.33,30.73 L14.15,28.43 L14.15,19.43 L43.82,5.49 L33.82,1.06 C32.2589863,0.460092445 30.5310137,0.460092445 28.97,1.06 L4.47,12 C2.40445686,13.0473676 1.05489486,15.1174584 0.93,17.43 L1,43 C1.12447785,45.3451998 2.51000433,47.4387992 4.62,48.47 L13.9,52.47 C15.4064233,44.6177329 22.4347566,39.0518799 30.4232782,39.3849437 C38.4117999,39.7180075 44.9524345,45.8495885 45.8,53.8 L58.25,48.48 C60.357195,47.4404709 61.7407043,45.3460976 61.87,43 L61.93,17.42 C61.8016208,15.1111089 60.4525643,13.0456042 58.39,12 Z" id="Shape"></path>
                                <path d="M29.75,42.3 C24.4182795,42.2959547 19.609305,45.5045925 17.5661402,50.4292994 C15.5229755,55.3540063 16.6481306,61.0245987 20.4167964,64.796126 C24.1854622,68.5676534 29.855199,69.6971123 34.7814552,67.657686 C39.7077115,65.6182598 42.9199985,60.8117221 42.92,55.48 C42.9200021,48.2047905 37.0252075,42.3055199 29.75,42.3 Z M37.85,52.3 L29.74,61.42 C29.0314058,62.2399805 27.7986419,62.3464061 26.96,61.66 L21.89,57.66 C21.0146287,56.9585984 20.8735984,55.6803713 21.575,54.805 C22.2764016,53.9296287 23.5546287,53.7885984 24.43,54.49 L28,57.25 L34.83,49.57 C35.3105222,49.0341016 36.0404414,48.7952666 36.7448042,48.9434619 C37.4491669,49.0916572 38.0209637,49.6043683 38.2448042,50.2884619 C38.4686447,50.9725555 38.3105222,51.7241016 37.83,52.26 L37.85,52.3 Z" id="Shape"></path>
                            </g>
                        </g>
                    </g>
                </g>
            </g>
        </g>
    </g>
</svg>