<?xml version="1.0" encoding="UTF-8"?>
<svg width="13px" height="16px" viewBox="0 0 13 16" version="1.1" xmlns="http://www.w3.org/2000/svg" xmlns:xlink="http://www.w3.org/1999/xlink">
    <!-- Generator: Sketch 50.2 (55047) - http://www.bohemiancoding.com/sketch -->
    <title>notification</title>
    <desc>Created with Sketch.</desc>
    <defs></defs>
    <g id="UI" stroke="none" stroke-width="1" fill="none" fill-rule="evenodd">
        <g id="1.4-Homepage---perfil" transform="translate(-91.000000, -96.000000)" fill="#939AA0" fill-rule="nonzero">
            <g id="Menu" transform="translate(75.000000, 50.000000)">
                <g id="notification" transform="translate(16.000000, 46.000000)">
                    <path d="M6.49998242,16 C7.32872394,16 8,15.1050226 8,14 L5,14 C4.99996484,15.1050226 5.6712409,16 6.49998242,16 Z" id="Shape"></path>
                    <path d="M11.3750238,11.4545455 L11.3750238,7.21210795 C11.3750238,4.60301705 10.046585,2.42665341 7.71877023,1.84967045 L7.71877023,1.27272727 C7.71877023,0.568471591 7.1744074,0 6.50001904,0 C5.82563069,0 5.28126785,0.568471591 5.28126785,1.27272727 L5.28126785,1.84971023 C2.95345308,2.42669318 1.62501428,4.60305682 1.62501428,7.21214773 L1.62501428,11.4545455 L0,13.1515284 L0,14 L13,14 L13,13.1515284 L11.3750238,11.4545455 Z" id="Shape"></path>
                </g>
            </g>
        </g>
    </g>
</svg>