<?xml version="1.0" encoding="UTF-8"?>
<svg width="13px" height="22px" viewBox="0 0 13 22" version="1.1" xmlns="http://www.w3.org/2000/svg" xmlns:xlink="http://www.w3.org/1999/xlink">
    <!-- Generator: Sketch 50.2 (55047) - http://www.bohemiancoding.com/sketch -->
    <title>Selector</title>
    <desc>Created with Sketch.</desc>
    <defs></defs>
    <g id="UI" stroke="none" stroke-width="1" fill="none" fill-rule="evenodd">
        <g id="1.1-Homepage---paso-2" transform="translate(-238.000000, -376.000000)" fill="#939AA0" fill-rule="nonzero" stroke="#939AA0">
            <g id="Body" transform="translate(0.000000, 93.000000)">
                <g id="Section" transform="translate(0.000000, 71.000000)">
                    <g id="Form">
                        <g id="step2" transform="translate(63.000000, 57.000000)">
                            <g id="combo-more" transform="translate(41.000000, 141.000000)">
                                <g id="Selector">
                                    <g transform="translate(134.000000, 15.000000)" id="Shape">
                                        <path d="M4.14299517,22.6174713 C4.06570048,22.6947126 3.96908213,22.7333333 3.86280193,22.7333333 C3.75652174,22.7333333 3.65990338,22.6947126 3.5826087,22.6174713 C3.42801932,22.4629885 3.42801932,22.211954 3.5826087,22.0574713 L8.51014493,17.1333333 L3.5826087,12.2091954 C3.42801932,12.0547126 3.42801932,11.8036782 3.5826087,11.6491954 C3.73719807,11.4947126 3.9884058,11.4947126 4.14299517,11.6491954 L9.35072464,16.8533333 C9.50531401,17.0078161 9.50531401,17.2588506 9.35072464,17.4133333 L4.14299517,22.6174713 Z" transform="translate(6.466667, 17.133333) rotate(90.000000) translate(-6.466667, -17.133333) "></path>
                                        <path d="M4.14299517,8.61747126 C4.06570048,8.69471264 3.96908213,8.73333333 3.86280193,8.73333333 C3.75652174,8.73333333 3.65990338,8.69471264 3.5826087,8.61747126 C3.42801932,8.46298851 3.42801932,8.21195402 3.5826087,8.05747126 L8.51014493,3.13333333 L3.5826087,-1.7908046 C3.42801932,-1.94528736 3.42801932,-2.19632184 3.5826087,-2.3508046 C3.73719807,-2.50528736 3.9884058,-2.50528736 4.14299517,-2.3508046 L9.35072464,2.85333333 C9.50531401,3.00781609 9.50531401,3.25885057 9.35072464,3.41333333 L4.14299517,8.61747126 Z" transform="translate(6.466667, 3.133333) scale(1, -1) rotate(90.000000) translate(-6.466667, -3.133333) "></path>
                                    </g>
                                </g>
                            </g>
                        </g>
                    </g>
                </g>
            </g>
        </g>
    </g>
</svg>