<?xml version="1.0" encoding="UTF-8"?>
<svg width="37px" height="37px" viewBox="0 0 37 37" version="1.1" xmlns="http://www.w3.org/2000/svg" xmlns:xlink="http://www.w3.org/1999/xlink">
    <!-- Generator: Sketch 52.6 (67491) - http://www.bohemiancoding.com/sketch -->
    <title>002-settings-work-tool</title>
    <desc>Created with Sketch.</desc>
    <g id="UI" stroke="none" stroke-width="1" fill="none" fill-rule="evenodd">
        <g id="1.-Homepage" transform="translate(-797.000000, -1042.000000)" fill="#939BA1" fill-rule="nonzero">
            <g id="002-settings-work-tool" transform="translate(797.000000, 1042.000000)">
                <path d="M36.8842233,16.4457908 C36.8257135,15.9256855 36.2192761,15.5348494 35.6948902,15.5348494 C33.9994814,15.5348494 32.4950211,14.5393805 31.8640785,12.9998522 C31.2195064,11.4230163 31.6351329,9.58406273 32.8986702,8.42504564 C33.2963995,8.06146753 33.3447218,7.45284245 33.0111468,7.0300676 C32.1434113,5.92818225 31.1571418,4.93285103 30.0802853,4.07023063 C29.6586014,3.73184555 29.0399114,3.77892761 28.6742593,4.18380577 C27.5715207,5.40504827 25.5907215,5.85893583 24.0601039,5.22029938 C22.4672594,4.55027489 21.4628174,2.93626891 21.5611139,1.20373179 C21.5934664,0.659534787 21.1957371,0.186373874 20.6531788,0.123184796 C19.271245,-0.0366463998 17.8771963,-0.0416024059 16.4911324,0.112171449 C15.9547692,0.171368189 15.5570399,0.633378088 15.5750747,1.17069175 C15.6353743,2.88615818 14.6188173,4.47194246 13.0418049,5.11787525 C11.5294974,5.73558634 9.56260288,5.28555346 8.46206708,4.07518664 C8.09834233,3.67650349 7.48970225,3.62749409 7.06595329,3.95775683 C5.95715728,4.82767356 4.94872286,5.82383078 4.07300254,6.91663012 C3.7314427,7.34146998 3.78169233,7.95725373 4.18341406,8.32275918 C5.4710437,9.48879728 5.88680779,11.3437202 5.21786815,12.9387282 C4.57921596,14.459396 3.00013845,15.4394462 1.19239069,15.4394462 C0.605777844,15.4205859 0.187948702,15.814313 0.123794376,16.3476344 C-0.038931834,17.7375187 -0.0408592171,19.1536975 0.115809502,20.5548705 C0.173906339,21.0771785 0.798791503,21.464573 1.32895955,21.464573 C2.93997656,21.4234106 4.48670157,22.4208068 5.13554136,23.9997077 C5.78231609,25.5765437 5.366552,27.4143959 4.10108726,28.5743767 C3.70528536,28.9379548 3.65503572,29.5456162 3.98861069,29.968391 C4.84822359,31.0632554 5.83463077,32.0595503 6.91534206,32.9293293 C7.3392287,33.2708808 7.95599132,33.2226974 8.32343316,32.8178192 C9.43030179,31.593548 11.4109634,31.1404865 12.9355235,31.7803619 C14.5323604,32.4483214 15.5368024,34.0621897 15.4385059,35.7956905 C15.4064287,36.3401629 15.8060854,36.8141498 16.346441,36.8763752 C17.0533777,36.9588376 17.7645821,37 18.4777138,37 C19.1546383,37 19.8317005,36.96283 20.508625,36.8875262 C21.0451259,36.8283295 21.4425799,36.3663196 21.4245451,35.8280422 C21.3624558,34.1135395 22.3808025,32.5277552 23.9557499,31.8829237 C25.4782449,31.2610826 27.4368793,31.7162092 28.5375527,32.925337 C28.9033425,33.3231942 29.5077148,33.3712399 29.9338042,33.0420785 C31.0405351,32.1742268 32.0469045,31.1788955 32.9267549,30.0830675 C33.2681771,29.6591913 33.2199925,29.0424439 32.8162057,28.6770761 C31.5285761,27.511038 31.110747,25.6558398 31.7796866,24.0619331 C32.4085642,22.5615023 33.9289942,21.5540564 35.5643788,21.5540564 L35.7931868,21.5599761 C36.3236301,21.6030658 36.8116711,21.1944706 36.8759631,20.653027 C37.0389647,19.2619036 37.040892,17.8469639 36.8842233,16.4457908 Z M18.5293402,24.7099309 C15.1264075,24.7099309 12.3584099,21.9420015 12.3584099,18.5391527 C12.3584099,15.1364415 15.1264075,12.3683745 18.5293402,12.3683745 C21.9321352,12.3683745 24.7001328,15.1364415 24.7001328,18.5391527 C24.7001328,21.9420015 21.9321352,24.7099309 18.5293402,24.7099309 Z" id="Shape"></path>
            </g>
        </g>
    </g>
</svg>