<?xml version="1.0" encoding="UTF-8"?>
<svg width="26px" height="37px" viewBox="0 0 26 37" version="1.1" xmlns="http://www.w3.org/2000/svg" xmlns:xlink="http://www.w3.org/1999/xlink">
    <!-- Generator: Sketch 53 (72520) - https://sketchapp.com -->
    <title>Shape</title>
    <desc>Created with Sketch.</desc>
    <g id="UI" stroke="none" stroke-width="1" fill="none" fill-rule="evenodd">
        <g id="8.-Sigue-tu-carga---Recolección" transform="translate(-518.000000, -386.000000)" fill="#FFFFFF" fill-rule="nonzero">
            <g id="proceso" transform="translate(295.000000, 335.000000)">
                <g id="en-transito" transform="translate(194.000000, 0.000000)">
                    <g id="transito-gris" transform="translate(9.000000, 37.000000)">
                        <path d="M42.25,19.5841122 L40.53,19.5841122 L40.53,21.1303243 C40.524513,22.7217568 39.2159161,24.0105265 37.6,24.0159304 L27.92,24.0159304 C27.1429157,24.0159304 26.3976587,23.711912 25.8481771,23.1707559 C25.2986955,22.6295998 24.99,21.8956346 24.99,21.1303243 L24.99,19.5939607 L23.25,19.5939607 C21.4573537,19.599368 20.0054905,21.0292333 20,22.7947182 L20,46.8053243 C20.0054905,48.5708093 21.4573537,50.0006745 23.25,50.0060819 L42.25,50.0060819 C44.0426463,50.0006745 45.4945095,48.5708093 45.5,46.8053243 L45.5,22.7848698 C45.4945095,21.0193848 44.0426463,19.5895195 42.25,19.5841122 L42.25,19.5841122 Z M30.94,43.8704758 L25.85,38.8674455 C25.5837369,38.6016521 25.417877,38.2541055 25.38,37.882597 C25.38,37.882597 25.38,37.8038092 25.38,37.7545667 C25.38,37.7053243 25.38,37.6659304 25.38,37.6265364 C25.4162788,37.2545946 25.5823783,36.906546 25.85,36.6416879 L30.94,31.5894152 C31.5815918,30.970058 32.6084082,30.970058 33.25,31.5894152 C33.5571649,31.8906593 33.729837,32.299995 33.729837,32.7269152 C33.729837,33.1538354 33.5571649,33.5631711 33.25,33.8644152 L30.9,36.1197182 L38.54,36.1197182 C39.4291784,36.1197182 40.15,36.8296183 40.15,37.7053243 C40.15,38.5810304 39.4291784,39.2909304 38.54,39.2909304 L30.9,39.2909304 L33.25,41.5954758 C33.5571649,41.8967199 33.729837,42.3060556 33.729837,42.7329758 C33.729837,43.159896 33.5571649,43.5692318 33.25,43.8704758 C32.6084082,44.489833 31.5815918,44.489833 30.94,43.8704758 Z M27.91,19.0818395 L37.6,19.0818395 C37.8816652,19.0818395 38.11,19.3101742 38.11,19.5918395 L38.11,21.1324455 C38.11,21.4141107 37.8816652,21.6424455 37.6,21.6424455 L27.91,21.6424455 C27.6283348,21.6424455 27.4,21.4141107 27.4,21.1324455 L27.4,19.5918395 C27.4,19.3101742 27.6283348,19.0818395 27.91,19.0818395 Z M29.76,16.6985061 C29.8952255,15.167509 31.1995898,13.9942399 32.76,14.0000213 C34.2973499,14.0246262 35.5669484,15.1899297 35.7,16.6985061 L29.76,16.6985061 Z" id="Shape"></path>
                    </g>
                </g>
            </g>
        </g>
    </g>
</svg>