<?xml version="1.0" encoding="UTF-8"?>
<svg width="25px" height="35px" viewBox="0 0 25 35" version="1.1" xmlns="http://www.w3.org/2000/svg" xmlns:xlink="http://www.w3.org/1999/xlink">
    <!-- Generator: Sketch 53 (72520) - https://sketchapp.com -->
    <title>Shape</title>
    <desc>Created with Sketch.</desc>
    <g id="UI" stroke="none" stroke-width="1" fill="none" fill-rule="evenodd">
        <g id="8.-Sigue-tu-carga---Recolección" transform="translate(-1095.000000, -390.000000)" fill="#FFFFFF" fill-rule="nonzero">
            <g id="proceso" transform="translate(295.000000, 335.000000)">
                <g id="cerrado" transform="translate(635.000000, 0.000000)">
                    <g id="cerrado-gris" transform="translate(145.000000, 40.000000)">
                        <path d="M41.23,20.3378788 L39.66,20.3378788 L39.66,21.8151515 C39.66,22.5491181 39.3639473,23.2530232 38.8369701,23.772016 C38.3099928,24.2910087 37.5952583,24.5825758 36.85,24.5825758 L27.54,24.5825758 C25.9880799,24.5825758 24.73,23.3435577 24.73,21.8151515 L24.73,20.3378788 L23.11,20.3378788 C21.3946732,20.3432847 20.0054891,21.7114206 20,23.4007576 L20,46.3969697 C20.0054891,48.0863067 21.3946732,49.4544426 23.11,49.4598485 L41.23,49.4598485 C42.9453268,49.4544426 44.3345109,48.0863067 44.34,46.3969697 L44.34,23.4007576 C44.3345109,21.7114206 42.9453268,20.3432847 41.23,20.3378788 Z M39.51,33.6431818 L31.42,41.6598485 C30.7062665,42.3584364 29.5537335,42.3584364 28.84,41.6598485 L24.84,37.7204545 C24.3394929,37.2746356 24.1287438,36.5937115 24.291646,35.9487393 C24.4545483,35.303767 24.9646599,34.7994371 25.6189198,34.6365092 C26.2731796,34.4735814 26.9653895,34.6785016 27.42,35.169697 L29.81,37.5234848 C29.9895794,37.7000511 30.2804206,37.7000511 30.46,37.5234848 L36.93,31.1613636 C37.2719505,30.8203327 37.7383396,30.6283812 38.225,30.6283812 C38.7116604,30.6283812 39.1780495,30.8203327 39.52,31.1613636 C39.8656853,31.4964395 40.0603544,31.9541359 40.0603544,32.4318182 C40.0603544,32.9095005 39.8656853,33.3671969 39.52,33.7022727 L39.51,33.6431818 Z M27.53,19.8651515 L36.8,19.8651515 C37.0706195,19.8651515 37.29,20.084532 37.29,20.3551515 L37.29,21.8274242 C37.29,22.0980438 37.0706195,22.3174242 36.8,22.3174242 L27.53,22.3174242 C27.2593805,22.3174242 27.04,22.0980438 27.04,21.8274242 L27.04,20.3551515 C27.04,20.084532 27.2593805,19.8651515 27.53,19.8651515 Z M32.17,15 C33.6526862,15.0050617 34.8855869,16.1252227 35.01,17.580303 L29.33,17.580303 C29.4498063,16.1230085 30.6854434,15.0003612 32.17,15 Z" id="Shape"></path>
                    </g>
                </g>
            </g>
        </g>
    </g>
</svg>