<?xml version="1.0" encoding="UTF-8"?>
<svg width="49px" height="39px" viewBox="0 0 49 39" version="1.1" xmlns="http://www.w3.org/2000/svg" xmlns:xlink="http://www.w3.org/1999/xlink">
    <!-- Generator: Sketch 52.6 (67491) - http://www.bohemiancoding.com/sketch -->
    <title>001-friend</title>
    <desc>Created with Sketch.</desc>
    <g id="UI" stroke="none" stroke-width="1" fill="none" fill-rule="evenodd">
        <g id="1.-Homepage" transform="translate(-1031.000000, -1042.000000)" fill="#939BA1">
            <g id="001-friend" transform="translate(1031.000000, 1042.000000)">
                <path d="M13.9999518,0 C9.03733368,0 5,4.26170196 5,9.5 C5,14.738298 9.03733368,19 13.9999518,19 C18.96257,19 23,14.738298 23,9.5 C23,4.26170196 18.9626663,0 13.9999518,0 Z" id="Path"></path>
                <path d="M34.4938767,1 C34.4741513,1 34.4541455,1.00009422 34.4344201,1.00018844 C32.4127097,1.01705385 30.5243091,1.87737832 29.1171703,3.42287195 C27.7347115,4.94104172 26.9829972,6.9438801 27.0002919,9.06232665 C27.0176802,11.1807732 27.8021143,13.1707976 29.2091597,14.6658835 C30.6273298,16.1725584 32.5059144,17 34.5051884,17 C34.5252877,17 34.5453871,16.9999058 34.5655799,16.9998116 C36.5872903,16.9829461 38.4756909,16.1225275 39.8828297,14.5771281 C41.2652885,13.0589583 42.0170028,11.0561199 41.9997081,8.93757913 C41.9637163,4.54748403 38.6024568,1 34.4938767,1 Z" id="Path"></path>
                <path d="M35.6717072,19 L34.9343084,19 C31.5000826,19 28.3661378,20.2922643 26,22.4102986 C26.5920096,22.8598636 27.1555115,23.3498707 27.6895554,23.8784387 C29.2650802,25.4378086 30.5023137,27.2548789 31.3670468,29.278862 C32.1462568,31.1015754 32.5909767,33.022102 32.6945546,35 L49,35 L49,32.1906889 C49,24.9177051 43.0209883,19 35.6717072,19 Z" id="Path"></path>
                <path d="M28.9719942,36.4007357 C28.7078062,32.0727424 26.5504265,28.2659309 23.3306937,25.826154 C20.9884758,24.0509078 18.0833414,23 14.9364236,23 L14.0645099,23 C6.29663609,23.0000949 0,29.4032277 0,37.3025988 L0,39 L29,39 L29,37.3025988 C29,36.9997627 28.9906647,36.6988252 28.9719942,36.4007357 Z" id="Path"></path>
            </g>
        </g>
    </g>
</svg>