<?xml version="1.0" encoding="UTF-8"?>
<svg width="20px" height="20px" viewBox="0 0 20 20" version="1.1" xmlns="http://www.w3.org/2000/svg" xmlns:xlink="http://www.w3.org/1999/xlink">
    <!-- Generator: Sketch 50.2 (55047) - http://www.bohemiancoding.com/sketch -->
    <title>chat-bubbles</title>
    <desc>Created with Sketch.</desc>
    <defs></defs>
    <g id="Symbols" stroke="none" stroke-width="1" fill="none" fill-rule="evenodd">
        <g id="Header" transform="translate(-294.000000, -15.000000)" fill="#FFFFFF" fill-rule="nonzero">
            <g id="chat-bubbles">
                <g transform="translate(294.000000, 15.000000)">
                    <path d="M19,4 L17,4 L17,13 L4,13 L4,15 C4,15.6 4.4,16 5,16 L16,16 L20,20 L20,5 C20,4.4 19.6,4 19,4 Z M15,10 L15,1 C15,0.4 14.6,0 14,0 L1,0 C0.4,0 0,0.4 0,1 L0,15 L4,11 L14,11 C14.6,11 15,10.6 15,10 Z" id="Shape"></path>
                </g>
            </g>
        </g>
    </g>
</svg>