<?xml version="1.0" encoding="UTF-8"?>
<svg width="18px" height="13px" viewBox="0 0 18 13" version="1.1" xmlns="http://www.w3.org/2000/svg" xmlns:xlink="http://www.w3.org/1999/xlink">
    <!-- Generator: Sketch 50.2 (55047) - http://www.bohemiancoding.com/sketch -->
    <title>delivery-truck</title>
    <desc>Created with Sketch.</desc>
    <defs></defs>
    <g id="UI" stroke="none" stroke-width="1" fill="none" fill-rule="evenodd">
        <g id="1.3-Homepage---menú" transform="translate(-15.000000, -98.000000)" fill="#939AA0" fill-rule="nonzero">
            <g id="Menu" transform="translate(0.000000, 50.000000)">
                <g id="delivery-truck" transform="translate(15.000000, 48.000000)">
                    <path d="M0.631588235,8.45652941 L0.631588235,0.798176471 C0.631588235,0.372617647 0.976558824,0.0276176471 1.40214706,0.0276176471 L9.05655882,0.0276176471 C9.48211765,0.0276176471 9.82708824,0.372617647 9.82708824,0.798176471 L9.82708824,8.45655882 C9.82708824,8.59841176 9.71211765,8.71341176 9.57023529,8.71341176 L0.888441176,8.71341176 C0.746558824,8.71341176 0.631588235,8.59841176 0.631588235,8.45652941 Z M6.81276471,11.0801176 C6.81276471,11.9627647 6.09720588,12.6782941 5.21458824,12.6782941 C4.33197059,12.6782941 3.61641176,11.9627647 3.61641176,11.0801176 C3.61641176,10.1974412 4.33197059,9.48194118 5.21458824,9.48194118 C6.09720588,9.48194118 6.81276471,10.1974412 6.81276471,11.0801176 Z M6.01364706,11.0801176 C6.01364706,10.6387941 5.65588235,10.2810294 5.21455882,10.2810294 C4.77323529,10.2810294 4.41544118,10.6387941 4.41544118,11.0801176 C4.41544118,11.5214412 4.77323529,11.8792353 5.21455882,11.8792353 C5.65588235,11.8792353 6.01364706,11.5214412 6.01364706,11.0801176 Z M3.83808824,9.48191176 L0.256852941,9.48191176 C0.115,9.48191176 0,9.59691176 0,9.73876471 L0,10.5180294 C0,10.6598824 0.115,10.7748824 0.256852941,10.7748824 L3.12738235,10.7748824 C3.20232353,10.2606471 3.46188235,9.80641176 3.83808824,9.48191176 Z M15.1746471,11.0801176 C15.1746471,11.9627647 14.4590882,12.6782941 13.5764706,12.6782941 C12.6938235,12.6782941 11.9782941,11.9627647 11.9782941,11.0801176 C11.9782941,10.1974412 12.6938235,9.48194118 13.5764706,9.48194118 C14.4590882,9.48191176 15.1746471,10.1974412 15.1746471,11.0801176 Z M14.3755882,11.0801176 C14.3755882,10.6387941 14.0177941,10.2810294 13.5764706,10.2810294 C13.1351176,10.2810294 12.7773824,10.6387941 12.7773824,11.0801176 C12.7773824,11.5214412 13.1351471,11.8792353 13.5764706,11.8792353 C14.0177941,11.8792353 14.3755882,11.5214412 14.3755882,11.0801176 Z M18,9.73876471 L18,10.5180294 C18,10.6598824 17.885,10.7748824 17.7431471,10.7748824 L15.6636176,10.7748824 C15.5148824,9.75479412 14.6369706,8.96820588 13.5765294,8.96820588 C12.5158824,8.96820588 11.6379412,9.75482353 11.4892059,10.7748824 L7.30179412,10.7748824 C7.22682353,10.2606765 6.96729412,9.80641176 6.59108824,9.48191176 L10.5615,9.48191176 L10.5615,2.13511765 C10.5615,1.85141176 10.7915,1.62141176 11.0752059,1.62141176 L13.5000588,1.62141176 C14.1828235,1.62141176 14.8209706,1.96055882 15.203,2.52641176 L16.7662353,4.84173529 C16.9955294,5.18135294 17.1180588,5.58176471 17.1180588,5.99155882 L17.1180588,9.48191176 L17.7431471,9.48191176 C17.885,9.48191176 18,9.59691176 18,9.73876471 Z M15.3943529,4.90102941 L14.1443235,3.12476471 C14.0962059,3.05641176 14.0178529,3.01573529 13.9342647,3.01573529 L11.9844118,3.01573529 C11.8425882,3.01573529 11.7275588,3.13073529 11.7275588,3.27258824 L11.7275588,5.04885294 C11.7275588,5.19073529 11.8425588,5.30570588 11.9844118,5.30570588 L15.1843529,5.30570588 C15.3924118,5.30570588 15.5141176,5.07120588 15.3943529,4.90102941 Z" id="Shape"></path>
                </g>
            </g>
        </g>
    </g>
</svg>