<?xml version="1.0" encoding="UTF-8"?>
<svg width="8px" height="18px" viewBox="0 0 8 18" version="1.1" xmlns="http://www.w3.org/2000/svg" xmlns:xlink="http://www.w3.org/1999/xlink">
    <!-- Generator: Sketch 50.2 (55047) - http://www.bohemiancoding.com/sketch -->
    <title>facebook-letter-logo</title>
    <desc>Created with Sketch.</desc>
    <defs></defs>
    <g id="Symbols" stroke="none" stroke-width="1" fill="none" fill-rule="evenodd">
        <g id="Footer" transform="translate(-1053.000000, -103.000000)" fill="#FFFFFF" fill-rule="nonzero">
            <g id="facebook-letter-logo">
                <g transform="translate(1053.000000, 103.000000)">
                    <path d="M1.72915774,3.4860269 C1.72915774,3.93963433 1.72915774,5.96427442 1.72915774,5.96427442 L0,5.96427442 L0,8.99468511 L1.72915774,8.99468511 L1.72915774,18 L5.28121481,18 L5.28121481,8.9949362 L7.66481004,8.9949362 C7.66481004,8.9949362 7.88804416,7.54187746 7.99625352,5.95310059 C7.68601349,5.95310059 5.29464633,5.95310059 5.29464633,5.95310059 C5.29464633,5.95310059 5.29464633,4.19010397 5.29464633,3.88108679 C5.29464633,3.57140001 5.68192824,3.15482944 6.06470641,3.15482944 C6.44676717,3.15482944 7.25313618,3.15482944 8,3.15482944 C8,2.74223458 8,1.31662916 8,0 C7.00295932,0 5.86865416,0 5.36865914,0 C1.64135471,-0.000209247824 1.72915774,3.0332146 1.72915774,3.4860269 Z" id="Facebook"></path>
                </g>
            </g>
        </g>
    </g>
</svg>