<?xml version="1.0" encoding="UTF-8"?>
<svg width="62px" height="69px" viewBox="0 0 62 69" version="1.1" xmlns="http://www.w3.org/2000/svg" xmlns:xlink="http://www.w3.org/1999/xlink">
    <!-- Generator: Sketch 50.2 (55047) - http://www.bohemiancoding.com/sketch -->
    <title>search-box</title>
    <desc>Created with Sketch.</desc>
    <defs></defs>
    <g id="UI" stroke="none" stroke-width="1" fill="none" fill-rule="evenodd">
        <g id="1.-Homepage" transform="translate(-881.000000, -904.000000)" fill="#939BA1" fill-rule="nonzero">
            <g id="process" transform="translate(261.000000, 751.000000)">
                <g id="steps" transform="translate(0.000000, 110.000000)">
                    <g id="sigue-tu-carga" transform="translate(563.000000, 0.000000)">
                        <g id="circle" transform="translate(11.000000, 0.000000)">
                            <g id="search-box" transform="translate(46.000000, 43.000000)">
                                <path d="M57.58,11.88 L48.17,7.7 L18.46,21.7 L18.46,30.7 L13.28,28.4 L13.28,19.4 L43,5.39 L33,1 C31.4337767,0.40968398 29.7062233,0.40968398 28.14,1 L3.58,11.88 C1.48541833,12.9270362 0.117306791,15.0212404 0,17.36 L0.09,43 C0.217077103,45.3496618 1.60602545,47.4464764 3.72,48.48 L13.01,52.48 C14.4643088,44.5462854 21.5429648,38.8975949 29.6015963,39.2400867 C37.6602278,39.5825785 44.2340853,45.8115009 45.01,53.84 L57.48,48.51 C59.5851104,47.4594186 60.9554132,45.3503771 61.06,43 L61.12,17.39 C61.0190907,15.0496238 59.6666714,12.9445871 57.58,11.88 Z" id="Shape"></path>
                                <path d="M28.89,42.26 C23.5501902,42.2559547 18.733923,45.4694654 16.6876626,50.4016457 C14.6414022,55.3338261 15.7682685,61.0130209 19.5426543,64.7902682 C23.31704,68.5675155 28.9953791,69.6986855 33.9291089,67.6561636 C38.8628386,65.6136417 42.0799985,60.7998113 42.08,55.46 C42.0800021,48.1737448 36.1762531,42.2655199 28.89,42.26 Z M36.2,62.77 C35.9868824,62.9951203 35.6899918,63.1218419 35.38,63.12 C35.0658116,63.1284553 34.7632657,63.0008757 34.55,62.77 L31.39,59.62 C30.3115734,60.3731206 29.0253176,60.7715803 27.71,60.76 C25.0793589,60.7819153 22.7015555,59.1967131 21.71,56.76 C21.0411034,55.1604467 21.0411034,53.3595533 21.71,51.76 C22.7235738,49.3413567 25.0875701,47.7653592 27.71,47.76 C28.5765697,47.7606673 29.4339493,47.9375868 30.23,48.28 C31.7942087,48.9271601 33.0383152,50.167671 33.69,51.73 C34.029249,52.526687 34.2027719,53.3840945 34.2,54.25 C34.2297102,55.5911163 33.8264469,56.9061052 33.05,58 L36.21,61.16 C36.4329844,61.3779138 36.5560241,61.6782755 36.55,61.99 C36.5432753,62.2865563 36.4170641,62.5678268 36.2,62.77 Z" id="Shape"></path>
                                <path d="M27.71,50.15 C25.4329702,50.1555134 23.5899933,52.0029635 23.59,54.28 C23.6044414,55.9312974 24.603467,57.414431 26.1283148,58.0483321 C27.6531627,58.6822331 29.4091851,58.3444122 30.59,57.19 C31.3637027,56.4172107 31.7984411,55.3685351 31.7984411,54.275 C31.7984411,53.1814649 31.3637027,52.1327893 30.59,51.36 C29.8336869,50.5829803 28.7943225,50.1463029 27.71,50.15 Z" id="Shape"></path>
                            </g>
                        </g>
                    </g>
                </g>
            </g>
        </g>
    </g>
</svg>