<?xml version="1.0" encoding="UTF-8"?>
<svg width="14px" height="14px" viewBox="0 0 14 14" version="1.1" xmlns="http://www.w3.org/2000/svg" xmlns:xlink="http://www.w3.org/1999/xlink">
    <!-- Generator: Sketch 52.6 (67491) - http://www.bohemiancoding.com/sketch -->
    <title>Group 3</title>
    <desc>Created with Sketch.</desc>
    <defs>
        <polygon id="path-1" points="0 0 14 0 14 14 0 14"></polygon>
    </defs>
    <g id="UI" stroke="none" stroke-width="1" fill="none" fill-rule="evenodd">
        <g id="1.4-Homepage---perfil" transform="translate(-91.000000, -102.000000)">
            <g id="Menu" transform="translate(75.000000, 50.000000)">
                <g id="Group-3" transform="translate(16.000000, 52.000000)">
                    <mask id="mask-2" fill="white">
                        <use xlink:href="#path-1"></use>
                    </mask>
                    <g id="Clip-2"></g>
                    <path d="M12.3357214,7 L9.99966678,4.66394535 L9.99966678,7 L12.3357214,7 Z M12.9993336,13.0004998 L12.9993336,7.99950017 L9.75008331,7.99950017 C9.33605465,7.99950017 9.00016661,7.66361213 9.00016661,7.24958347 L9.00016661,4.00033322 L5.99933356,4.00033322 L5.99933356,13.0004998 L12.9993336,13.0004998 Z M7.99950017,1.25024992 C7.99950017,1.11729424 7.88287238,0.999500167 7.74991669,0.999500167 L2.24975008,0.999500167 C2.1167944,0.999500167 2.00016661,1.11729424 2.00016661,1.25024992 L2.00016661,1.75058314 C2.00016661,1.88237254 2.1167944,2.00016661 2.24975008,2.00016661 L7.74991669,2.00016661 C7.88287238,2.00016661 7.99950017,1.88237254 7.99950017,1.75058314 L7.99950017,1.25024992 Z M14,13.2500833 C14,13.664112 13.664112,14 13.2500833,14 L5.74975008,14 C5.33572143,14 4.99983339,13.664112 4.99983339,13.2500833 L4.99983339,11.9998334 L0.749916694,11.9998334 C0.335888037,11.9998334 0,11.6639454 0,11.2499167 L0,0.749916694 C0,0.335888037 0.335888037,0 0.749916694,0 L9.24975008,0 C9.66377874,0 9.99966678,0.335888037 9.99966678,0.749916694 L9.99966678,3.31222926 C10.101133,3.37520826 10.1956015,3.44518494 10.2807398,3.5314895 L13.4681773,6.71892702 C13.7655781,7.01516161 14,7.58547151 14,7.99950017 L14,13.2500833 Z" id="Fill-1" fill="#939AA0" mask="url(#mask-2)"></path>
                </g>
            </g>
        </g>
    </g>
</svg>