<?xml version="1.0" encoding="UTF-8"?>
<svg width="14px" height="16px" viewBox="0 0 14 16" version="1.1" xmlns="http://www.w3.org/2000/svg" xmlns:xlink="http://www.w3.org/1999/xlink">
    <!-- Generator: Sketch 52.6 (67491) - http://www.bohemiancoding.com/sketch -->
    <title>Group 3</title>
    <desc>Created with Sketch.</desc>
    <defs>
        <polygon id="path-1" points="0 0 14 0 14 16 0 16"></polygon>
    </defs>
    <g id="UI" stroke="none" stroke-width="1" fill="none" fill-rule="evenodd">
        <g id="1.4-Homepage---perfil" transform="translate(-91.000000, -241.000000)">
            <g id="Menu" transform="translate(75.000000, 50.000000)">
                <g id="Group-3" transform="translate(16.000000, 191.000000)">
                    <mask id="mask-2" fill="white">
                        <use xlink:href="#path-1"></use>
                    </mask>
                    <g id="Clip-2"></g>
                    <path d="M12.8339003,10.2859047 C12.8339003,9.50083306 12.1780542,8.85704765 11.3752551,8.85704765 C10.5738167,8.85704765 9.91660997,9.50083306 9.91660997,10.2859047 C9.91660997,11.0709763 10.5738167,11.7147617 11.3752551,11.7147617 C12.1780542,11.7147617 12.8339003,11.0709763 12.8339003,10.2859047 Z M7.58441054,6.8577141 L12.8339003,6.8577141 L12.8339003,2.2859047 L7.58441054,2.2859047 L7.58441054,6.8577141 Z M1.45864516,6.8577141 L6.41695014,6.8577141 L6.41695014,2.2859047 L1.45864516,2.2859047 L1.45864516,6.8577141 Z M4.08339003,10.2859047 C4.08339003,9.50083306 3.42754398,8.85704765 2.62610555,8.85704765 C1.82330644,8.85704765 1.16746039,9.50083306 1.16746039,10.2859047 C1.16746039,11.0709763 1.82330644,11.7147617 2.62610555,11.7147617 C3.42754398,11.7147617 4.08339003,11.0709763 4.08339003,10.2859047 Z M14,2.8577141 L14,10.8577141 C14,12.4011996 12.2596948,13.6514495 10.0717271,13.7047651 L12.0134124,15.5081639 C12.2052678,15.688104 12.0773642,16 11.8133929,16 L2.18796773,16 C1.9239965,16 1.79609291,15.688104 1.98794829,15.5081639 L3.92963359,13.7047651 C1.74166586,13.6514495 0,12.4011996 0,10.8577141 L0,2.8577141 C0,1.2769077 1.83283118,0 4.08339003,0 L9.91660997,0 C12.1685295,0 14,1.2769077 14,2.8577141 Z" id="Fill-1" fill="#939AA0" mask="url(#mask-2)"></path>
                </g>
            </g>
        </g>
    </g>
</svg>