<?xml version="1.0" encoding="UTF-8"?>
<svg width="16px" height="14px" viewBox="0 0 16 14" version="1.1" xmlns="http://www.w3.org/2000/svg" xmlns:xlink="http://www.w3.org/1999/xlink">
    <!-- Generator: Sketch 52.6 (67491) - http://www.bohemiancoding.com/sketch -->
    <title>001-sign-out-option</title>
    <desc>Created with Sketch.</desc>
    <g id="UI" stroke="none" stroke-width="1" fill="none" fill-rule="evenodd">
        <g id="1.4-Homepage---perfil" transform="translate(-91.000000, -183.000000)" fill="#939AA0">
            <g id="001-sign-out-option" transform="translate(91.000000, 183.000000)">
                <path d="M6.52847888,12.1090169 C6.50799446,12.0545204 6.50113456,12.0080479 6.50799446,11.9705547 C6.51490199,11.9334436 6.49108291,11.9024938 6.43653719,11.878756 C6.38222967,11.854875 6.35483772,11.8360568 6.35483772,11.8226356 C6.35483772,11.8090234 6.31596496,11.7987546 6.2376478,11.7920202 C6.15928299,11.7851424 6.12041024,11.7815603 6.12041024,11.7815603 L2.93775118,11.7815603 C2.48890427,11.7815603 2.10465472,11.6215096 1.7849549,11.3007875 C1.46544564,10.9804474 1.30557192,10.595151 1.30557192,10.145328 L1.30557192,2.94519902 C1.30557192,2.49523275 1.46544564,2.11012735 1.7849549,1.78978728 C2.10465472,1.46925617 2.48890427,1.30901449 2.93775118,1.30901449 L6.20191916,1.30901449 C6.29047854,1.30901449 6.35988736,1.28699619 6.41105077,1.24257748 C6.46202362,1.19815877 6.49589436,1.13176952 6.51304411,1.04312316 C6.52995566,0.954524559 6.54019787,0.874475364 6.54372309,0.80283229 C6.5471054,0.731189215 6.54539043,0.64087118 6.53853053,0.531734897 C6.53181355,0.422789662 6.52828832,0.354489931 6.52828832,0.327074515 C6.52828832,0.238475913 6.49608491,0.16196111 6.43153518,0.0970524845 C6.36674726,0.0324781936 6.29047854,0 6.20206208,0 L2.93775118,0 C2.12866436,0 1.43657691,0.288100682 0.861965199,0.864206523 C0.287305854,1.44036013 0,2.13400837 0,2.94539007 L0,10.145328 C0,10.9565664 0.287305854,11.6504057 0.861965199,12.2263682 C1.43657691,12.8026651 2.12866436,13.0909091 2.93775118,13.0909091 L6.20206208,13.0909091 C6.29047854,13.0909091 6.36007791,13.0685565 6.41124132,13.0245198 C6.46202362,12.9801011 6.49608491,12.9136641 6.51304411,12.8248745 C6.53014621,12.7362759 6.54038842,12.6558446 6.54372309,12.5845836 C6.5471054,12.5129405 6.54558098,12.4228135 6.53872108,12.3136773 C6.53181355,12.204541 6.52847888,12.1364323 6.52847888,12.1090169 Z" id="Fill-1"></path>
                <path d="M15.8017152,5.72426711 L10.121144,0.193247847 C9.98893788,0.0645267379 9.83215343,0 9.65118078,0 C9.47020812,0 9.31347244,0.0645267379 9.18126633,0.193247847 C9.04886516,0.321968955 8.98273772,0.47462051 8.98273772,0.650822661 L8.98273772,3.57888364 L4.30461163,3.57888364 C4.12344391,3.57888364 3.96685453,3.64341038 3.83464842,3.77213149 C3.70224724,3.9008526 3.63636364,4.05350415 3.63636364,4.22970631 L3.63636364,8.13393006 C3.63636364,8.31013221 3.70224724,8.46259384 3.83464842,8.59145739 C3.96704959,8.71998858 4.12363897,8.78475272 4.30461163,8.78475272 L8.98273772,8.78475272 L8.98273772,11.7128137 C8.98273772,11.8888259 9.04886516,12.0414775 9.18126633,12.1701511 C9.31347244,12.2990621 9.47020812,12.3636364 9.65118078,12.3636364 C9.83215343,12.3636364 9.98893788,12.2990621 10.121144,12.1701511 L15.8017152,6.63936926 C15.9338726,6.51045822 16,6.35818652 16,6.18198437 C16,6.00578221 15.9338726,5.85298822 15.8017152,5.72426711 Z" id="Fill-2"></path>
            </g>
        </g>
    </g>
</svg>