<?xml version="1.0" encoding="UTF-8"?>
<svg width="36px" height="25px" viewBox="0 0 36 25" version="1.1" xmlns="http://www.w3.org/2000/svg" xmlns:xlink="http://www.w3.org/1999/xlink">
    <!-- Generator: Sketch 50.2 (55047) - http://www.bohemiancoding.com/sketch -->
    <title>Group 2</title>
    <desc>Created with Sketch.</desc>
    <defs></defs>
    <g id="UI" stroke="none" stroke-width="1" fill="none" fill-rule="evenodd">
        <g id="1.5-Homepage---login" transform="translate(-324.000000, -14.000000)" fill-rule="nonzero">
            <g id="Group" transform="translate(324.000000, 14.000000)">
                <g id="Group-2">
                    <g id="user" transform="translate(0.000000, 4.000000)">
                        <g id="user-silhouette" transform="translate(0.000000, 1.000000)" fill="#FFFFFF">
                            <path d="M9.375,10 C11.7911216,10 13.75,7.76140253 13.75,4.99997672 C13.75,1.17063631 11.791217,0 9.375,0 C6.9586876,0 5,1.17063631 5,4.99997672 C5.00004769,7.76140253 6.95873528,10 9.375,10 Z" id="Shape"></path>
                            <path d="M19.9021922,18.4683728 L17.6398318,13.5594538 C17.5363529,13.3348252 17.3545683,13.1485214 17.1283029,13.0350536 L13.6172548,11.2745605 C13.5398289,11.2358119 13.4460772,11.243345 13.3764721,11.2940995 C12.3834267,12.0175628 11.2158309,12.3999634 10.0000394,12.3999634 C8.78405247,12.3999634 7.61655444,12.0175628 6.62350902,11.2940995 C6.55370843,11.243345 6.45995665,11.2358119 6.38253078,11.2745605 L2.87172709,13.0350536 C2.64536396,13.1485214 2.46377488,13.3347311 2.36019823,13.5594538 L0.0978378037,18.4683728 C-0.0581381734,18.8067988 -0.0261706745,19.1940019 0.183377747,19.504414 C0.392828409,19.8147791 0.747305935,20 1.13164912,20 L18.8682831,20 C19.2526263,20 19.6072016,19.8146849 19.8166522,19.5043669 C20.0261029,19.1940019 20.0581682,18.8066576 19.9021922,18.4683728 Z" id="Shape"></path>
                        </g>
                        <circle id="Oval-2" fill="#FA5050" cx="23" cy="3" r="3"></circle>
                    </g>
                    <g id="user" transform="translate(10.000000, 0.000000)">
                        <g id="user-silhouette" transform="translate(0.000000, 1.000000)" fill="#CFD4DB">
                            <path d="M9.375,10 C11.7911216,10 13.75,7.76140253 13.75,4.99997672 C13.75,1.17063631 11.791217,0 9.375,0 C6.9586876,0 5,1.17063631 5,4.99997672 C5.00004769,7.76140253 6.95873528,10 9.375,10 Z" id="Shape"></path>
                            <path d="M19.9021922,18.4683728 L17.6398318,13.5594538 C17.5363529,13.3348252 17.3545683,13.1485214 17.1283029,13.0350536 L13.6172548,11.2745605 C13.5398289,11.2358119 13.4460772,11.243345 13.3764721,11.2940995 C12.3834267,12.0175628 11.2158309,12.3999634 10.0000394,12.3999634 C8.78405247,12.3999634 7.61655444,12.0175628 6.62350902,11.2940995 C6.55370843,11.243345 6.45995665,11.2358119 6.38253078,11.2745605 L2.87172709,13.0350536 C2.64536396,13.1485214 2.46377488,13.3347311 2.36019823,13.5594538 L0.0978378037,18.4683728 C-0.0581381734,18.8067988 -0.0261706745,19.1940019 0.183377747,19.504414 C0.392828409,19.8147791 0.747305935,20 1.13164912,20 L18.8682831,20 C19.2526263,20 19.6072016,19.8146849 19.8166522,19.5043669 C20.0261029,19.1940019 20.0581682,18.8066576 19.9021922,18.4683728 Z" id="Shape"></path>
                        </g>
                        <circle id="Oval-2" fill="#FA5050" cx="23" cy="3" r="3"></circle>
                    </g>
                </g>
            </g>
        </g>
    </g>
</svg>