<?xml version="1.0" encoding="UTF-8"?>
<svg width="13px" height="13px" viewBox="0 0 13 13" version="1.1" xmlns="http://www.w3.org/2000/svg" xmlns:xlink="http://www.w3.org/1999/xlink">
    <!-- Generator: Sketch 50.2 (55047) - http://www.bohemiancoding.com/sketch -->
    <title>delivery-package</title>
    <desc>Created with Sketch.</desc>
    <defs></defs>
    <g id="UI" stroke="none" stroke-width="1" fill="none" fill-rule="evenodd">
        <g id="1.3-Homepage---menú" transform="translate(-18.000000, -134.000000)" fill="#939AA0" fill-rule="nonzero">
            <g id="Menu" transform="translate(0.000000, 50.000000)">
                <g id="delivery-package" transform="translate(18.000000, 84.000000)">
                    <path d="M10.242554,1.58794076 L3.9217101,4.67397153 L3.9217101,6.65567395 L2.81904714,6.14648285 L2.81904714,4.16478042 L9.13989108,1.07877172 L7.01685596,0.0984431724 C6.73257666,-0.0328143908 6.26742324,-0.0328143908 5.98314394,0.0984431724 L0.75529794,2.51247933 C0.33880954,2.70479924 -0.00105960857,3.24941885 2.48252102e-06,3.72278437 L0.0128750265,9.38194869 C0.0139583594,9.8603439 0.361410838,10.4055591 0.784972765,10.5936214 L5.99911779,12.9084313 C6.27409318,13.0305119 6.72407993,13.0305119 6.99907655,12.9084975 L12.2150059,10.5935994 C12.6385466,10.4056253 12.9860203,9.8604542 12.9871036,9.38208105 L12.9999974,3.72278437 C13.0010808,3.24941885 12.6612116,2.70479924 12.244702,2.51247933 L10.242554,1.58794076 Z M11.8189096,6.11780472 L11.5129637,6.26523234 L11.5067611,8.50108911 C11.5064849,8.59879327 11.4233869,8.71509409 11.3213837,8.7608026 L10.8633463,8.96616003 C10.7629362,9.01118468 10.6817075,8.96944698 10.6816437,8.87300025 L10.6800931,6.66652752 L10.3837484,6.80930045 C10.2443596,6.87645138 10.1571194,6.77115855 10.2263253,6.61956158 L10.9346976,5.06750156 C11.0061975,4.91083076 11.1854785,4.82045056 11.2572334,4.90542604 L11.9841498,5.76603445 C12.0567118,5.85193646 11.9646073,6.04763156 11.8189096,6.11780472 Z M8.82801865,9.70848221 C8.8288046,9.80208319 8.75261018,9.91231749 8.65806283,9.95471699 L8.23331137,10.1451397 C8.14016598,10.1868995 8.06397156,10.1457795 8.06290947,10.0533697 L8.0380353,7.9394391 L7.76320861,8.07184379 C7.63395212,8.13411944 7.55147013,8.03195914 7.6143884,7.88777436 L8.25822802,6.41237317 C8.32316427,6.26353371 8.48919035,6.17983771 8.55693052,6.26225422 L9.24306261,7.09691996 C9.31158872,7.18024094 9.22793843,7.36609724 9.09305286,7.43106422 L8.80972944,7.56757208 L8.82801865,9.70848221 Z M12.3245287,9.09468214 C12.3242101,9.14378791 12.2817052,9.2020045 12.2296203,9.22474846 L7.37809438,11.3414145 C7.33282806,11.3611804 7.29559114,11.340466 7.29493265,11.2951766 L7.29121533,11.0489418 C7.29053559,11.0035421 7.32668917,10.9504876 7.37204046,10.930435 L12.2322118,8.78030373 C12.2843604,8.75722887 12.326483,8.77840656 12.3261643,8.82764469 L12.3245287,9.09468214 Z" id="Shape"></path>
                </g>
            </g>
        </g>
    </g>
</svg>