<?xml version="1.0" encoding="UTF-8"?>
<svg width="18px" height="18px" viewBox="0 0 18 18" version="1.1" xmlns="http://www.w3.org/2000/svg" xmlns:xlink="http://www.w3.org/1999/xlink">
    <!-- Generator: Sketch 52.6 (67491) - http://www.bohemiancoding.com/sketch -->
    <title>Group 3</title>
    <desc>Created with Sketch.</desc>
    <defs>
        <polygon id="path-1" points="0.45 0 17.55 0 17.55 17.1 0.45 17.1"></polygon>
    </defs>
    <g id="UI" stroke="none" stroke-width="1" fill="none" fill-rule="evenodd">
        <g id="1.4-Homepage---perfil" transform="translate(-89.000000, -279.000000)">
            <g id="Group-3" transform="translate(89.000000, 279.000000)">
                <mask id="mask-2" fill="white">
                    <use xlink:href="#path-1"></use>
                </mask>
                <g id="Clip-2"></g>
                <path d="M6.96139209,5.22492245 L8.11764872,4.06866582 C8.2099102,3.97640434 8.35944796,3.97640434 8.45166582,4.06866582 L12.7660133,8.38301327 C12.8582311,8.47523112 12.8582311,8.62476888 12.7660133,8.71698673 L8.45166582,13.0313778 C8.35944796,13.1235957 8.2099102,13.1235957 8.11764872,13.0313778 L6.96139209,11.8751212 C6.86921786,11.7828597 6.86917423,11.6334528 6.96130485,11.5411477 L9.78254311,8.71689949 C9.87471735,8.62472526 9.87471735,8.47531837 9.78254311,8.38310051 L6.96130485,5.55880867 C6.86917423,5.46659082 6.86921786,5.31709668 6.96139209,5.22492245 M9,17.1 C13.7216066,17.1 17.55,13.2716066 17.55,8.55 C17.55,3.82839337 13.7216066,0 9,0 C4.27839337,0 0.45,3.82839337 0.45,8.55 C0.45,13.2716066 4.27839337,17.1 9,17.1" id="Fill-1" fill="#939AA0" mask="url(#mask-2)"></path>
            </g>
        </g>
    </g>
</svg>