<?xml version="1.0" encoding="UTF-8"?>
<svg width="19px" height="30px" viewBox="0 0 19 30" version="1.1" xmlns="http://www.w3.org/2000/svg" xmlns:xlink="http://www.w3.org/1999/xlink">
    <!-- Generator: Sketch 52.6 (67491) - http://www.bohemiancoding.com/sketch -->
    <title>payment-method</title>
    <desc>Created with Sketch.</desc>
    <g id="UI" stroke="none" stroke-width="1" fill="none" fill-rule="evenodd">
        <g id="4.3-Método-de-pago" transform="translate(-287.000000, -369.000000)" fill="#939BA1" fill-rule="nonzero">
            <g id="Content" transform="translate(249.000000, 169.000000)">
                <g transform="translate(0.000000, 138.000000)" id="li">
                    <g transform="translate(1.000000, 56.000000)">
                        <g id="payment-method" transform="translate(37.000000, 6.000000)">
                            <path d="M18.0734386,16.6932027 C17.7365904,16.4298836 14.2211198,12.5290876 13.2718202,11.9779547 L13.2718202,1.85548071 C13.2718202,0.826699326 12.4388864,0 11.4160927,0 L1.85572751,0 C0.826809288,0 0,0.832823025 0,1.85548071 L0,19.5774648 C0,20.6062462 0.832933801,21.4329455 1.85572751,21.4329455 L4.92410865,21.4329455 L6.02039652,21.4329455 L5.84891015,19.9755052 C5.79378953,19.9265156 5.75704245,19.8958971 5.70192183,19.8469075 L5.08947051,19.8469075 L3.86456786,19.8469075 C3.92581299,19.6019596 3.94418653,19.3325168 3.89519042,19.0569504 C3.76045113,18.2914881 3.15412432,17.6729945 2.38856016,17.5321494 C2.10683256,17.4770361 1.83122946,17.4954072 1.58012442,17.5566442 L1.58012442,3.75995101 C1.69036566,3.77832211 1.80673141,3.7905695 1.92309716,3.7905695 C2.96426441,3.7905695 3.80332272,2.94549908 3.80332272,1.910594 C3.80332272,1.80036742 3.7910737,1.69014085 3.77270016,1.57991427 L9.4807465,1.57991427 C9.46237296,1.69014085 9.45012393,1.80036742 9.45012393,1.910594 C9.45012393,2.95162278 10.2891822,3.7905695 11.3303495,3.7905695 C11.4467153,3.7905695 11.563081,3.77832211 11.6733222,3.75995101 L11.6733222,17.2259645 L11.6733222,21.0961421 C11.0241238,20.6184936 10.3014313,19.1243111 10.3014313,19.1243111 C10.3014313,19.1243111 9.94620951,15.1500306 7.93124465,15.1500306 C7.87612403,15.1500306 7.82712792,15.1500306 7.77200731,15.1561543 C7.77200731,15.1561543 6.24700351,15.284752 7.50865324,19.6448255 L8.07210845,24.4886712 C8.07210845,24.4886712 8.70293332,27.1157379 10.4422951,28.9344764 L10.4422951,29.4733619 C10.4422951,29.7611758 10.6750266,30 10.9690032,30 L16.634178,30 C16.9036566,30 17.124139,29.7979179 17.1547616,29.5345989 C17.3568705,27.6484997 18.1408082,20.6368647 18.6001467,19.5713411 C18.6736409,19.3998775 18.734886,19.228414 18.7593841,19.044703 C18.8635008,18.4445805 18.9002479,17.3423148 18.0734386,16.6932027 Z" id="Shape"></path>
                            <circle id="Oval" cx="6.61016949" cy="4.57627119" r="1.01694915"></circle>
                            <path d="M2.54237288,10.7274979 C2.54237288,12.6901943 3.90136588,14.3309341 5.71947813,14.7457627 C5.77457245,14.6405077 5.82966676,14.5476356 5.89700425,14.4485721 C6.49692007,13.5631917 7.31109156,13.4022135 7.58656311,13.3774476 C7.69675173,13.3650646 7.80694035,13.3588732 7.91712897,13.3588732 C8.30891074,13.3588732 8.84148908,13.4331708 9.39243218,13.7303614 C10.1821173,12.9811934 10.6779661,11.9100689 10.6779661,10.7274979 C10.6779661,8.45522792 8.85373226,6.61016949 6.6071087,6.61016949 C4.36048514,6.61016949 2.54237288,8.45522792 2.54237288,10.7274979 Z M4.17071584,10.3622011 C4.41557945,10.3622011 4.42170104,10.3622011 4.45843058,10.1145422 C4.48903853,9.92260661 4.54413284,9.74305394 4.61759192,9.56350128 C4.66044305,9.46443774 4.72778054,9.42728891 4.82572598,9.45824627 C4.97876573,9.50158656 5.1256839,9.54492686 5.27872365,9.59445863 C5.41952022,9.63779893 5.43788499,9.6873307 5.37666909,9.82354307 C5.24199411,10.1021593 5.1868998,10.386967 5.20526457,10.6965405 C5.21138616,10.7770296 5.21750775,10.8575188 5.25423729,10.925625 C5.3705475,11.1918582 5.65826223,11.229007 5.83578835,11.0061141 C5.9276122,10.8946676 5.9888281,10.7646467 6.04392241,10.6284343 C6.14186785,10.3931584 6.2336917,10.1578825 6.35000191,9.94118102 C6.73566209,9.2353533 7.61104947,9.04341769 8.2109653,9.54492686 C8.42522095,9.72447953 8.57213911,9.95975544 8.64559819,10.2321802 C8.67620614,10.3498181 8.73742205,10.4055414 8.85985385,10.3993499 C8.98228565,10.3931584 9.09859586,10.3993499 9.22102766,10.3993499 C9.33121628,10.3993499 9.38631059,10.4550731 9.38631059,10.5603281 C9.39243218,10.690349 9.39243218,10.8203699 9.38631059,10.9503908 C9.38631059,11.0680288 9.3189731,11.1175606 9.20878448,11.1175606 C9.12308222,11.1175606 9.03125837,11.1175606 8.94555611,11.1175606 C8.74966523,11.1175606 8.74354364,11.123752 8.71293569,11.3156876 C8.67620614,11.557155 8.62111183,11.7924309 8.5170448,12.0153239 C8.43134254,12.1886851 8.38849141,12.2072595 8.2109653,12.1577277 C8.07629032,12.1205789 7.94161533,12.0834301 7.81306194,12.0400898 C7.66002219,11.990558 7.64165742,11.9472177 7.7151165,11.8048139 C7.84366989,11.5633465 7.91100738,11.3033047 7.94773692,11.03088 C7.97222328,10.8575188 7.95385851,10.6841576 7.88039943,10.5231793 C7.75184604,10.2197972 7.40291541,10.1702655 7.19478134,10.4303073 C7.12132226,10.5169878 7.07234954,10.6160514 7.02949841,10.7213064 C6.9131882,10.9875397 6.82748594,11.2661559 6.68056778,11.5138147 C6.44182576,11.9224518 6.1112599,12.1763021 5.62153269,12.1453448 C5.07058959,12.1143874 4.72165895,11.7924309 4.53801125,11.2847303 C4.46455217,11.0742203 4.46455217,11.0742203 4.24417492,11.0680288 C4.17071584,11.0680288 4.09725676,11.0680288 4.02379768,11.0680288 C3.85851475,11.0618373 3.8279068,11.0370714 3.8279068,10.8699017 C3.8279068,10.8203699 3.8279068,10.7646467 3.8279068,10.7151149 C3.82178521,10.3683925 3.82178521,10.3683925 4.17071584,10.3622011 Z" id="Shape"></path>
                        </g>
                    </g>
                </g>
            </g>
        </g>
    </g>
</svg>