<?xml version="1.0" encoding="UTF-8"?>
<svg width="22px" height="24px" viewBox="0 0 22 24" version="1.1" xmlns="http://www.w3.org/2000/svg" xmlns:xlink="http://www.w3.org/1999/xlink">
    <!-- Generator: Sketch 52.6 (67491) - http://www.bohemiancoding.com/sketch -->
    <title>credit-card</title>
    <desc>Created with Sketch.</desc>
    <g id="UI" stroke="none" stroke-width="1" fill="none" fill-rule="evenodd">
        <g id="4.3-Método-de-pago" transform="translate(-286.000000, -483.000000)" fill="#939BA1" fill-rule="nonzero">
            <g id="Content" transform="translate(249.000000, 169.000000)">
                <g transform="translate(0.000000, 138.000000)" id="li">
                    <g transform="translate(1.000000, 172.500000)">
                        <g id="credit-card" transform="translate(36.000000, 4.000000)">
                            <path d="M17.6921616,5.91742116 C18.0251478,5.91742116 18.1189467,5.46634048 17.8187901,5.33007652 L6.09861346,0.123853656 C5.38574157,-0.195661827 4.54624112,0.123853656 4.22732474,0.842763492 L0.123621423,10.0617249 C-0.195294949,10.775936 0.123621423,11.6170135 0.841183261,11.936529 L3.20491637,12.960858 C3.50038301,13.0924232 3.83805917,12.8762804 3.83805917,12.5520662 L3.83805917,8.63800152 C3.83805917,7.139098 5.05275535,5.92211991 6.54884834,5.92211991 L17.6921616,5.92211991 L17.6921616,5.91742116 Z" id="Shape"></path>
                            <path d="M20.572056,7 L6.427944,7 C5.63930826,7 5,7.64693062 5,8.44496912 L5,18.5550309 C5,19.3530694 5.63930826,20 6.427944,20 L8.32720285,20 C8.28053802,19.7166727 8.2572056,19.4286233 8.2572056,19.1358518 C8.2572056,18.8053033 8.28987099,18.4841991 8.34586879,18.1678169 L6.81526215,18.1678169 L6.81526215,13.3276426 L20.1894043,13.3276426 L20.1894043,18.1630948 L18.6541312,18.1630948 C18.710129,18.4794769 18.7427944,18.8005812 18.7427944,19.1311297 C18.7427944,19.4239012 18.719462,19.7119506 18.6727971,19.9952779 L20.572056,19.9952779 C21.3606917,19.9952779 22,19.3483473 22,18.5503088 L22,8.44496912 C22,7.64693062 21.3606917,7 20.572056,7 Z M20.1894043,10.347984 L6.81526215,10.347984 L6.81526215,8.83218307 L20.1894043,8.83218307 L20.1894043,10.347984 Z" id="Shape"></path>
                            <path d="M13.5,16 C11.56743,16 10,17.56743 10,19.5 C10,21.43257 11.56743,23 13.5,23 C15.43257,23 17,21.43257 17,19.5 C17,17.56743 15.43257,16 13.5,16 Z M14.5063613,20.8804071 C14.3549618,21.06743 14.1545802,21.192112 13.923028,21.2544529 C13.8206107,21.2811705 13.7760814,21.3346056 13.7805344,21.4414758 C13.7849873,21.5438931 13.7805344,21.6463104 13.7805344,21.7531807 C13.7805344,21.8466921 13.7315522,21.8956743 13.6424936,21.8956743 C13.5311705,21.9001272 13.4198473,21.9001272 13.3085242,21.8956743 C13.2105598,21.8956743 13.1660305,21.8377863 13.1660305,21.7442748 C13.1660305,21.6685751 13.1660305,21.5928753 13.1660305,21.5171756 C13.1660305,21.3524173 13.1571247,21.3435115 12.9968193,21.3167939 C12.7919847,21.2856234 12.5916031,21.2366412 12.4045802,21.1475827 C12.2576336,21.0763359 12.2398219,21.0407125 12.2843511,20.8848601 C12.3155216,20.769084 12.3466921,20.6533079 12.3823155,20.5419847 C12.4223919,20.4083969 12.4580153,20.3950382 12.5826972,20.4573791 C12.7919847,20.5642494 13.0101781,20.6265903 13.2417303,20.6533079 C13.3886768,20.6711196 13.5356234,20.6577608 13.6736641,20.5954198 C13.9319338,20.4840967 13.9720102,20.1857506 13.7538168,20.0076336 C13.678117,19.9452926 13.5979644,19.9007634 13.5089059,19.8651399 C13.2818066,19.7671756 13.0458015,19.6914758 12.836514,19.562341 C12.4891858,19.3575064 12.2709924,19.0725191 12.2977099,18.6494911 C12.3244275,18.173028 12.596056,17.8791349 13.0324427,17.7188295 C13.2105598,17.6520356 13.2150127,17.6564885 13.2150127,17.4694656 C13.2150127,17.4071247 13.2150127,17.3403308 13.2150127,17.2779898 C13.2194656,17.1354962 13.2417303,17.1132316 13.3842239,17.1087786 C13.4287532,17.1087786 13.4732824,17.1087786 13.5133588,17.1087786 C13.8161578,17.1087786 13.8161578,17.1087786 13.8161578,17.4115776 C13.8161578,17.6253181 13.8161578,17.6253181 14.0298982,17.6564885 C14.1902036,17.6832061 14.346056,17.7277354 14.4974555,17.7945293 C14.5820611,17.8301527 14.6132316,17.8880407 14.586514,17.9770992 C14.5508906,18.1062341 14.5152672,18.2398219 14.4707379,18.3645038 C14.4306616,18.4847328 14.3905852,18.5025445 14.2748092,18.4491094 C14.0388041,18.3333333 13.7938931,18.2888041 13.5356234,18.3021628 C13.4688295,18.3066158 13.4020356,18.3155216 13.3396947,18.3422392 C13.1170483,18.4402036 13.076972,18.6895674 13.2684478,18.8409669 C13.3664122,18.9166667 13.4732824,18.9745547 13.5890585,19.0235369 C13.7894402,19.1036896 13.985369,19.1838422 14.1768448,19.2907125 C14.764631,19.6157761 14.9293893,20.3683206 14.5063613,20.8804071 Z" id="Shape"></path>
                        </g>
                    </g>
                </g>
            </g>
        </g>
    </g>
</svg>