<?xml version="1.0" encoding="UTF-8"?>
<svg width="33px" height="59px" viewBox="0 0 33 59" version="1.1" xmlns="http://www.w3.org/2000/svg" xmlns:xlink="http://www.w3.org/1999/xlink">
    <!-- Generator: Sketch 52.6 (67491) - http://www.bohemiancoding.com/sketch -->
    <title>receipt</title>
    <desc>Created with Sketch.</desc>
    <g id="UI" stroke="none" stroke-width="1" fill="none" fill-rule="evenodd">
        <g id="1.-Homepage" transform="translate(-710.000000, -1579.000000)" fill="#939BA1">
            <g id="steps" transform="translate(250.000000, 1421.000000)">
                <g id="factura" transform="translate(389.000000, 110.000000)">
                    <g id="circle" transform="translate(10.000000, 0.000000)">
                        <path d="M91,48 C91,48.9529883 90.327,49.7285156 89.5,49.7285156 C88.673,49.7285156 88,48.9529883 88,48 L85,48 C85,48.9529883 84.327,49.7285156 83.5,49.7285156 C82.673,49.7285156 82,48.9529883 82,48 L79,48 C79,48.9529883 78.327,49.7285156 77.5,49.7285156 C76.673,49.7285156 76,48.9529883 76,48 L73,48 C73,48.9529883 72.327,49.7285156 71.5,49.7285156 C70.673,49.7285156 70,48.9529883 70,48 L67,48 C67,48.9529883 66.327,49.7285156 65.5,49.7285156 C64.673,49.7285156 64,48.9529883 64,48 L61,48 L61,107 L64,107 C64,106.047012 64.673,105.271484 65.5,105.271484 C66.327,105.271484 67,106.047012 67,107 L70,107 C70,106.047012 70.673,105.271484 71.5,105.271484 C72.327,105.271484 73,106.047012 73,107 L76,107 C76,106.047012 76.673,105.271484 77.5,105.271484 C78.327,105.271484 79,106.047012 79,107 L82,107 C82,106.047012 82.673,105.271484 83.5,105.271484 C84.327,105.271484 85,106.047012 85,107 L88,107 C88,106.047012 88.673,105.271484 89.5,105.271484 C90.327,105.271484 91,106.047012 91,107 L94,107 L94,48 L91,48 Z M73,75.1428571 L79,75.1428571 L79,71.7142857 L73,71.7142857 L73,61.4285714 L76,61.4285714 L76,58 L79,58 L79,61.4285714 L82,61.4285714 L82,64.8571429 L76,64.8571429 L76,68.2857143 L82,68.2857143 L82,78.5714286 L79,78.5714286 L79,82 L76,82 L76,78.5714286 L73,78.5714286 L73,75.1428571 Z M68,96 L87,96 L87,93 L68,93 L68,96 Z M68,89 L87,89 L87,86 L68,86 L68,89 Z" id="receipt"></path>
                    </g>
                </g>
            </g>
        </g>
    </g>
</svg>