<?xml version="1.0" encoding="UTF-8"?>
<svg width="25px" height="35px" viewBox="0 0 25 35" version="1.1" xmlns="http://www.w3.org/2000/svg" xmlns:xlink="http://www.w3.org/1999/xlink">
    <!-- Generator: Sketch 53 (72520) - https://sketchapp.com -->
    <title>Shape</title>
    <desc>Created with Sketch.</desc>
    <g id="UI" stroke="none" stroke-width="1" fill="none" fill-rule="evenodd">
        <g id="8.-Sigue-tu-carga---Recolección" transform="translate(-901.000000, -388.000000)" fill="#FFFFFF" fill-rule="nonzero">
            <g id="proceso" transform="translate(295.000000, 335.000000)">
                <g id="recepción" transform="translate(445.000000, 0.000000)">
                    <g id="recepcion-gris" transform="translate(141.000000, 38.000000)">
                        <path d="M27.04,21.8165921 L27.04,20.3393194 C27.0454457,20.0712148 27.2677162,19.85669 27.54,19.8567437 L36.8,19.8567437 C37.0706195,19.8567437 37.29,20.0728002 37.29,20.3393194 L37.29,21.8165921 C37.29,22.0831114 37.0706195,22.2991679 36.8,22.2991679 L27.54,22.2991679 C27.2677162,22.2992215 27.0454457,22.0846968 27.04,21.8165921 L27.04,21.8165921 Z M35.04,17.5718952 C34.9159994,16.1179256 33.6815368,15 32.2,15 C30.7184632,15 29.4840006,16.1179256 29.36,17.5718952 L35.04,17.5718952 Z M44.37,23.3923497 L44.37,46.3885618 C44.3645109,48.0778988 42.9753268,49.4460347 41.26,49.4514406 L23.11,49.4514406 C21.3946732,49.4460347 20.0054891,48.0778988 20,46.3885618 L20,23.3923497 C20.0054891,21.7030127 21.3946732,20.3348769 23.11,20.3294709 L24.73,20.3294709 L24.73,21.8067437 C24.73,23.3351499 25.9880799,24.5741679 27.54,24.5741679 L36.8,24.5741679 C37.5521525,24.587355 38.2782674,24.3029738 38.8158126,23.7846796 C39.3533577,23.2663854 39.6574421,22.5574615 39.66,21.8165921 L39.66,20.3393194 L41.28,20.3393194 C42.9953268,20.3447253 44.3845109,21.7128612 44.39,23.4021982 L44.37,23.3923497 Z M40.86,33.0635618 C40.8327175,32.0378123 39.971752,31.2250387 38.93,31.2415921 L26.28,31.2415921 C25.2582732,31.2415921 24.43,32.0573158 24.43,33.0635618 C24.43,34.0698079 25.2582732,34.8855315 26.28,34.8855315 L38.93,34.8855315 C39.4312912,34.8960907 39.9162988,34.7100402 40.2782689,34.3683312 C40.640239,34.0266221 40.8495029,33.5572624 40.86,33.0635618 L40.86,33.0635618 Z M40.86,39.9575012 C40.8327175,38.9317517 39.971752,38.1189781 38.93,38.1355315 L26.28,38.1355315 C25.2582732,38.1355315 24.43,38.9512552 24.43,39.9575012 C24.43,40.9637473 25.2582732,41.7794709 26.28,41.7794709 L38.93,41.7794709 C39.4312912,41.7900301 39.9162988,41.6039796 40.2782689,41.2622706 C40.640239,40.9205615 40.8495029,40.4512018 40.86,39.9575012 L40.86,39.9575012 Z" id="Shape"></path>
                    </g>
                </g>
            </g>
        </g>
    </g>
</svg>