<?xml version="1.0" encoding="UTF-8"?>
<svg width="25px" height="35px" viewBox="0 0 25 35" version="1.1" xmlns="http://www.w3.org/2000/svg" xmlns:xlink="http://www.w3.org/1999/xlink">
    <!-- Generator: Sketch 53 (72520) - https://sketchapp.com -->
    <title>Shape</title>
    <desc>Created with Sketch.</desc>
    <g id="UI" stroke="none" stroke-width="1" fill="none" fill-rule="evenodd">
        <g id="8.-Sigue-tu-carga---Recolección" transform="translate(-710.000000, -389.000000)" fill="#FFFFFF" fill-rule="nonzero">
            <g id="proceso" transform="translate(295.000000, 335.000000)">
                <g id="llegada" transform="translate(395.000000, 0.000000)">
                    <g id="llegada-gris" transform="translate(0.000000, 39.000000)">
                        <path d="M27.04,21.8165921 L27.04,20.3393194 C27.0454457,20.0712148 27.2677162,19.85669 27.54,19.8567437 L36.8,19.8567437 C37.0706195,19.8567437 37.29,20.0728002 37.29,20.3393194 L37.29,20.3393194 L37.29,21.8165921 C37.29,22.0831114 37.0706195,22.2991679 36.8,22.2991679 L27.54,22.2991679 C27.2677162,22.2992215 27.0454457,22.0846968 27.04,21.8165921 Z M35.04,17.5718952 C34.9159994,16.1179256 33.6815368,15 32.2,15 C30.7184632,15 29.4840006,16.1179256 29.36,17.5718952 L35.04,17.5718952 Z M44.37,23.3923497 L44.37,46.3787134 C44.3590884,48.0658233 42.9730655,49.4308459 41.26,49.4415921 L23.11,49.4415921 C22.2851767,49.4415921 21.494136,49.1188969 20.9108979,48.5444957 C20.3276598,47.9700945 20,47.1910393 20,46.3787134 L20,23.3825012 C20,21.69092 21.3923944,20.3196224 23.11,20.3196224 L24.73,20.3196224 L24.73,21.8165921 C24.73,23.3449983 25.9880799,24.5840164 27.54,24.5840164 L36.8,24.5840164 C37.5538835,24.5972295 38.2815305,24.311506 38.8193717,23.7910743 C39.3572129,23.2706425 39.6601194,22.5591707 39.66,21.8165921 L39.66,20.3294709 L41.28,20.3294709 C42.9930655,20.3402172 44.3790884,21.7052398 44.39,23.3923497 L44.37,23.3923497 Z M31.04,42.2817437 C31.3108867,42.5394656 31.6644903,42.6961763 32.04,42.7249255 L32.29,42.7249255 C32.6672564,42.7030413 33.0231719,42.545306 33.29,42.2817437 L38.16,37.4756831 C38.7702746,36.874655 38.7702746,35.900196 38.16,35.2991679 C37.5497253,34.6981399 36.5602747,34.6981399 35.95,35.2991679 L33.71,37.515077 L33.71,30.3158346 C33.7099999,29.4782027 33.0205185,28.799168 32.17,28.799168 C31.3194815,28.799168 30.6300001,29.4782027 30.63,30.3158346 L30.63,37.515077 L28.39,35.2991679 C27.7797253,34.6981399 26.7902747,34.6981399 26.18,35.2991679 C25.5697254,35.900196 25.5697254,36.874655 26.18,37.4756831 L31.04,42.2817437 Z" id="Shape"></path>
                    </g>
                </g>
            </g>
        </g>
    </g>
</svg>