<?xml version="1.0" encoding="UTF-8"?>
<svg width="26px" height="36px" viewBox="0 0 26 36" version="1.1" xmlns="http://www.w3.org/2000/svg" xmlns:xlink="http://www.w3.org/1999/xlink">
    <!-- Generator: Sketch 53 (72520) - https://sketchapp.com -->
    <title>Shape</title>
    <desc>Created with Sketch.</desc>
    <g id="UI" stroke="none" stroke-width="1" fill="none" fill-rule="evenodd">
        <g id="8.-Sigue-tu-carga---Recolección" transform="translate(-319.000000, -388.000000)" fill="#FFFFFF" fill-rule="nonzero">
            <g id="proceso" transform="translate(295.000000, 335.000000)">
                <g id="recolección">
                    <g id="checked" transform="translate(4.000000, 38.000000)">
                        <g id="recoleccion">
                            <path d="M27.5265936,22.1718966 L27.5265936,20.6300698 C27.5322096,20.3522281 27.7652611,20.1282864 28.0544052,20.1228899 L37.956151,20.1228899 C38.2435227,20.1284138 38.4734639,20.3538761 38.4734064,20.6300698 L38.4734064,22.1718966 C38.4762438,22.3054674 38.4230026,22.4345122 38.3256892,22.5299301 C38.2283758,22.625348 38.0951844,22.6791043 37.956151,22.6790765 L28.0544052,22.6790765 C27.7629029,22.6790765 27.5265936,22.4520043 27.5265936,22.1718966 L27.5265936,22.1718966 Z M36.0349168,17.7492882 C35.9401171,16.2053854 34.609502,15 33,15 C31.390498,15 30.0598829,16.2053854 29.9650832,17.7492882 L36.0349168,17.7492882 Z M46,23.8354465 L46,47.8047669 C46.0000092,49.5654917 44.5176838,50.9944104 42.6853431,51 L23.3252132,51 C21.4887486,51 20,49.5694454 20,47.8047669 L20,23.8151593 C20.005817,22.0544434 21.4928632,20.6300609 23.3252132,20.6300698 L25.0775477,20.6300698 L25.0775477,22.1718966 C25.0775477,23.7629083 26.4197846,25.0526782 28.0755177,25.0526782 L37.956151,25.0526782 C39.5953709,25.0304909 40.9120587,23.7471968 40.9118961,22.1718966 L40.9118961,20.6300698 L42.6431181,20.6300698 C44.471347,20.635638 45.9519803,22.0583946 45.9577751,23.8151593 L46,23.8354465 Z" id="Shape"></path>
                        </g>
                    </g>
                </g>
            </g>
        </g>
    </g>
</svg>