<?xml version="1.0" encoding="UTF-8"?>
<svg width="22px" height="22px" viewBox="0 0 22 22" version="1.1" xmlns="http://www.w3.org/2000/svg" xmlns:xlink="http://www.w3.org/1999/xlink">
    <!-- Generator: Sketch 50.2 (55047) - http://www.bohemiancoding.com/sketch -->
    <title>more</title>
    <desc>Created with Sketch.</desc>
    <defs></defs>
    <g id="UI" stroke="none" stroke-width="1" fill="none" fill-rule="evenodd">
        <g id="1.1-Homepage---paso-2" transform="translate(-337.000000, -223.000000)" fill="#455560">
            <g id="Body" transform="translate(0.000000, 93.000000)">
                <g id="Section" transform="translate(0.000000, 71.000000)">
                    <g id="Form">
                        <g id="step2" transform="translate(63.000000, 57.000000)">
                            <g id="more" transform="translate(274.000000, 2.000000)">
                                <polygon id="Path" points="15 9.23809524 9.76190476 9.23809524 9.76190476 4 9.23809524 4 9.23809524 9.23809524 4 9.23809524 4 9.76190476 9.23809524 9.76190476 9.23809524 15 9.76190476 15 9.76190476 9.76190476 15 9.76190476"></polygon>
                                <path d="M21.8097139,20.8780488 L16.4621867,15.5317073 C17.8966511,13.8829268 18.7651364,11.7317073 18.7651364,9.3804878 C18.7651364,4.20487805 14.5544467,0 9.3825682,0 C4.2058106,0 0,4.2097561 0,9.3804878 C0,14.5512195 4.21068973,18.7609756 9.3825682,18.7609756 C11.7343092,18.7609756 13.8860058,17.8926829 15.5351519,16.4585366 L20.8826791,21.804878 C21.0095365,21.9317073 21.1803061,22 21.3461965,22 C21.5120869,22 21.6828565,21.9365854 21.8097139,21.804878 C22.0634287,21.5512195 22.0634287,21.1317073 21.8097139,20.8780488 Z M1.31248614,9.3804878 C1.31248614,4.93170732 4.93280106,1.31707317 9.37768907,1.31707317 C13.8274562,1.31707317 17.442892,4.93658537 17.442892,9.3804878 C17.442892,13.8243902 13.8274562,17.4487805 9.37768907,17.4487805 C4.93280106,17.4487805 1.31248614,13.8292683 1.31248614,9.3804878 Z" id="Shape" fill-rule="nonzero"></path>
                            </g>
                        </g>
                    </g>
                </g>
            </g>
        </g>
    </g>
</svg>